<?xml version="1.0" encoding="UTF-8"?>
<svg id="Layer_2" data-name="Layer 2" xmlns="http://www.w3.org/2000/svg" viewBox="0 0 500 800">
  <defs>
    <style>
      .cls-1, .cls-2 {
        fill: #fff;
      }

      .cls-3 {
        fill: #f8db8b;
      }

      .cls-4 {
        fill: #77beed;
      }

      .cls-5 {
        fill: #ccd3e0;
      }

      .cls-6 {
        fill: #f3f4f7;
      }

      .cls-7 {
        fill: #499ed7;
      }

      .cls-2 {
        font-family: MyriadPro-Regular, 'Myriad Pro';
        font-size: 32px;
      }

      .cls-8 {
        letter-spacing: -.02em;
      }

      .cls-9 {
        fill: #f2c037;
      }

      .cls-10 {
        fill: #d39e0d;
      }

      .cls-11 {
        fill: #032c73;
      }

      .cls-12 {
        fill: #c9e5f8;
      }
    </style>
  </defs>
  <g id="Layer_1-2" data-name="Layer 1">
    <rect class="cls-11" width="500" height="800"/>
    <circle class="cls-1" cx="251.02" cy="120" r="20"/>
    <text class="cls-2" transform="translate(48.98 129.39)"><tspan x="0" y="0">#FFFFFF</tspan></text>
    <text class="cls-2" transform="translate(355.7 129.74)"><tspan x="0" y="0">13.03:1</tspan></text>
    <circle class="cls-6" cx="251.02" cy="170.91" r="20"/>
    <text class="cls-2" transform="translate(48.98 180.3)"><tspan x="0" y="0">#F3F4F7</tspan></text>
    <text class="cls-2" transform="translate(355.7 180.3)"><tspan x="0" y="0">11.85:1</tspan></text>
    <circle class="cls-12" cx="251.02" cy="221.82" r="20"/>
    <text class="cls-2" transform="translate(48.98 231.21)"><tspan x="0" y="0">#C9E5F8</tspan></text>
    <text class="cls-2" transform="translate(372.11 231.21)"><tspan x="0" y="0">9.96:1</tspan></text>
    <circle class="cls-3" cx="251.02" cy="272.73" r="20"/>
    <text class="cls-2" transform="translate(48.98 282.12)"><tspan x="0" y="0">#F8DB8B</tspan></text>
    <text class="cls-2" transform="translate(372.12 282.12)"><tspan x="0" y="0">9.62:1</tspan></text>
    <circle class="cls-5" cx="251.02" cy="323.64" r="20"/>
    <text class="cls-2" transform="translate(48.98 333.03)"><tspan x="0" y="0">#</tspan><tspan class="cls-8" x="15.9" y="0">C</tspan><tspan x="33.79" y="0">CD3E0</tspan></text>
    <text class="cls-2" transform="translate(372.12 333.03)"><tspan x="0" y="0">8.66:1</tspan></text>
    <circle class="cls-9" cx="251.02" cy="374.55" r="20"/>
    <text class="cls-2" transform="translate(48.98 383.94)"><tspan x="0" y="0">#F2C037</tspan></text>
    <text class="cls-2" transform="translate(372.11 383.94)"><tspan x="0" y="0">7.68:1</tspan></text>
    <circle class="cls-4" cx="251.02" cy="425.45" r="20"/>
    <text class="cls-2" transform="translate(48.98 434.85)"><tspan x="0" y="0">#77BEED</tspan></text>
    <text class="cls-2" transform="translate(372.12 434.85)"><tspan x="0" y="0">6.44:1</tspan></text>
    <circle class="cls-10" cx="251.02" cy="476.36" r="20"/>
    <text class="cls-2" transform="translate(48.98 485.76)"><tspan x="0" y="0">#D39E0D</tspan></text>
    <text class="cls-2" transform="translate(372.12 485.76)"><tspan x="0" y="0">5.38:1</tspan></text>
    <circle class="cls-7" cx="251.02" cy="527.27" r="20"/>
    <text class="cls-2" transform="translate(48.98 536.66)"><tspan x="0" y="0">#2EA3F2</tspan></text>
    <text class="cls-2" transform="translate(372.11 536.66)"><tspan x="0" y="0">4.74:1</tspan></text>
    <text class="cls-2" transform="translate(191.73 59.42)"><tspan x="0" y="0">#032C73</tspan></text>
  </g>
</svg>