<?xml version="1.0" encoding="utf-8"?>
<!-- Generator: Adobe Illustrator 25.2.0, SVG Export Plug-In . SVG Version: 6.00 Build 0)  -->
<svg version="1.1" id="Layer_1" xmlns="http://www.w3.org/2000/svg" xmlns:xlink="http://www.w3.org/1999/xlink" x="0px" y="0px"
	 viewBox="0 0 800 800" style="enable-background:new 0 0 800 800;" xml:space="preserve">
<style type="text/css">
	.st0{clip-path:url(#SVGID_2_);fill:url(#SVGID_3_);}
	.st1{clip-path:url(#SVGID_5_);fill:url(#SVGID_6_);}
	.st2{clip-path:url(#SVGID_8_);fill:url(#SVGID_9_);}
	.st3{clip-path:url(#SVGID_11_);fill:none;stroke:#000000;stroke-width:9;stroke-miterlimit:10;}
	.st4{clip-path:url(#SVGID_13_);}
</style>
<g>
	<defs>
		<rect id="SVGID_1_" width="800" height="800"/>
	</defs>
	<clipPath id="SVGID_2_">
		<use xlink:href="#SVGID_1_"  style="overflow:visible;"/>
	</clipPath>
	
		<linearGradient id="SVGID_3_" gradientUnits="userSpaceOnUse" x1="-7.275958e-12" y1="800" x2="1" y2="800" gradientTransform="matrix(-546.4102 -946.4102 -946.4102 546.4102 757801.3125 -436254.9062)">
		<stop  offset="0" style="stop-color:#FFFFFF"/>
		<stop  offset="0.9988" style="stop-color:#00FF00"/>
	</linearGradient>
	<polygon class="st0" points="200,1146.41 -346.41,200 600,-346.41 1146.41,600 	"/>
</g>
<g>
	<defs>
		<path id="SVGID_4_" d="M140,588.18V800h521V574.85c0,0-91.44-94.35-260.5-94.35C231.44,480.5,140,588.18,140,588.18"/>
	</defs>
	<clipPath id="SVGID_5_">
		<use xlink:href="#SVGID_4_"  style="overflow:visible;"/>
	</clipPath>
	
		<linearGradient id="SVGID_6_" gradientUnits="userSpaceOnUse" x1="-9.094947e-13" y1="800" x2="1" y2="800" gradientTransform="matrix(521 0 0 -521 140 417440.25)">
		<stop  offset="0" style="stop-color:#FFFFFF"/>
		<stop  offset="1" style="stop-color:#00FF00"/>
	</linearGradient>
	<rect x="140" y="480.5" class="st1" width="521" height="319.5"/>
</g>
<g>
	<defs>
		<path id="SVGID_7_" d="M263.22,306.96c0,93.63,61.46,169.54,137.28,169.54s137.28-75.9,137.28-169.54
			c0-93.63-61.46-169.54-137.28-169.54S263.22,213.33,263.22,306.96"/>
	</defs>
	<clipPath id="SVGID_8_">
		<use xlink:href="#SVGID_7_"  style="overflow:visible;"/>
	</clipPath>
	
		<linearGradient id="SVGID_9_" gradientUnits="userSpaceOnUse" x1="-2.445327e-06" y1="800" x2="1" y2="800" gradientTransform="matrix(274.5587 0 0 -274.5587 263.2206 219953.9375)">
		<stop  offset="0" style="stop-color:#FFFFFF"/>
		<stop  offset="1" style="stop-color:#00FF00"/>
	</linearGradient>
	<rect x="263.22" y="137.43" class="st2" width="274.56" height="339.07"/>
</g>
<g>
	<defs>
		<rect id="SVGID_10_" width="800" height="800"/>
	</defs>
	<clipPath id="SVGID_11_">
		<use xlink:href="#SVGID_10_"  style="overflow:visible;"/>
	</clipPath>
	<ellipse class="st3" cx="400.5" cy="306.96" rx="137.28" ry="169.54"/>
</g>
<g>
	<defs>
		<rect id="SVGID_12_" width="800" height="800"/>
	</defs>
	<clipPath id="SVGID_13_">
		<use xlink:href="#SVGID_12_"  style="overflow:visible;"/>
	</clipPath>
	<path class="st4" d="M665,800H136l-0.5-217.48l1.07-1.26c0.95-1.12,23.83-27.78,67.93-54.76c40.63-24.86,107.62-54.5,196-54.5
		c88.27,0,155.18,25.95,195.77,47.71c44.1,23.65,67.01,47.03,67.96,48.01l1.27,1.31L665,800z M144,800h512l0.5-227.26
		c-5.35-5.14-27.51-25.33-64.83-45.28C552.05,506.27,486.71,481,400.5,481c-86.28,0-151.65,28.92-191.3,53.18
		c-37.68,23.05-59.75,46.24-64.7,51.71L144,800z"/>
</g>
</svg>
