<?xml version="1.0" encoding="UTF-8"?>
<svg id="Layer_2" data-name="Layer 2" xmlns="http://www.w3.org/2000/svg" viewBox="0 0 500 1200">
  <defs>
    <style>
      .cls-1 {
        fill: none;
        stroke: #231f20;
        stroke-miterlimit: 10;
      }

      .cls-2 {
        font-size: 20px;
      }

      .cls-2, .cls-3 {
        font-family: MyriadPro-Regular, 'Myriad Pro';
      }

      .cls-4 {
        fill: #fff;
      }

      .cls-5 {
        fill: #19294d;
      }

      .cls-6 {
        letter-spacing: 0em;
      }

      .cls-7 {
        letter-spacing: 0em;
      }

      .cls-8 {
        fill: #23394e;
      }

      .cls-9 {
        letter-spacing: .01em;
      }

      .cls-10 {
        letter-spacing: -.01em;
      }

      .cls-11 {
        letter-spacing: 0em;
      }

      .cls-12 {
        fill: #f3f4f7;
      }

      .cls-13 {
        fill: #0f192e;
      }

      .cls-14 {
        fill: #0a111f;
      }

      .cls-15 {
        letter-spacing: 0em;
      }

      .cls-3 {
        font-size: 32px;
      }

      .cls-16 {
        fill: #02173b;
      }

      .cls-17 {
        letter-spacing: 0em;
      }

      .cls-18 {
        fill: #537fca;
      }

      .cls-19 {
        letter-spacing: 0em;
      }
    </style>
  </defs>
  <g id="Layer_1-2" data-name="Layer 1">
    <rect class="cls-18" width="500" height="1200"/>
    <circle cx="251.02" cy="120" r="20"/>
    <text class="cls-3" transform="translate(48.98 129.39)"><tspan x="0" y="0">#000000</tspan></text>
    <text class="cls-3" transform="translate(372.12 129.74)"><tspan x="0" y="0">5.26:1</tspan></text>
    <circle class="cls-14" cx="251.02" cy="170.91" r="20"/>
    <text class="cls-3" transform="translate(48.98 180.3)"><tspan x="0" y="0">#0A111F</tspan></text>
    <text class="cls-3" transform="translate(372.11 180.3)"><tspan x="0" y="0">5.09:1</tspan></text>
    <circle class="cls-16" cx="251.02" cy="221.82" r="20"/>
    <text class="cls-3" transform="translate(48.98 231.21)"><tspan x="0" y="0">#02173B</tspan></text>
    <text class="cls-3" transform="translate(372.11 231.21)"><tspan x="0" y="0">4.77:1</tspan></text>
    <circle class="cls-13" cx="251.02" cy="272.73" r="20"/>
    <text class="cls-3" transform="translate(48.98 282.12)"><tspan x="0" y="0">#0F192E</tspan></text>
    <text class="cls-3" transform="translate(372.12 282.12)"><tspan x="0" y="0">4.73:1</tspan></text>
    <circle class="cls-5" cx="251.02" cy="323.64" r="20"/>
    <text class="cls-3" transform="translate(48.98 333.03)"><tspan x="0" y="0">#19294D</tspan></text>
    <text class="cls-3" transform="translate(372.12 333.03)"><tspan x="0" y="0">3.87:1</tspan></text>
    <circle class="cls-4" cx="251.02" cy="374.55" r="20"/>
    <text class="cls-3" transform="translate(48.98 383.94)"><tspan x="0" y="0">#FFFFFF</tspan></text>
    <text class="cls-3" transform="translate(411.57 383.94)"><tspan x="0" y="0">4:1</tspan></text>
    <circle class="cls-12" cx="251.02" cy="425.45" r="20"/>
    <text class="cls-3" transform="translate(48.98 434.85)"><tspan x="0" y="0">#F3F4F7</tspan></text>
    <text class="cls-3" transform="translate(372.12 434.85)"><tspan x="0" y="0">3.63:1</tspan></text>
    <text class="cls-3" transform="translate(190.5 59.42)"><tspan x="0" y="0">#537F</tspan><tspan class="cls-19" x="80.73" y="0">C</tspan><tspan x="99.42" y="0">A</tspan></text>
    <rect class="cls-1" x="37.91" y="402.95" width="425" height="45" rx="10" ry="10"/>
    <g>
      <rect class="cls-1" x="37.5" y="1131.85" width="425" height="45" rx="10" ry="10"/>
      <text class="cls-2" transform="translate(72.15 1160.22)"><tspan class="cls-15" x="0" y="0">C</tspan><tspan x="11.46" y="0">an use </tspan><tspan class="cls-10" x="69.64" y="0">f</tspan><tspan x="75.22" y="0">or la</tspan><tspan class="cls-7" x="111.34" y="0">r</tspan><tspan x="117.72" y="0">ge </tspan><tspan class="cls-6" x="143.16" y="0">t</tspan><tspan class="cls-11" x="149.66" y="0">e</tspan><tspan class="cls-9" x="159.62" y="0">x</tspan><tspan x="169.14" y="0">t and UI eleme</tspan><tspan class="cls-17" x="289.68" y="0">n</tspan><tspan x="300.7" y="0">ts only</tspan></text>
    </g>
    <rect class="cls-1" x="37.91" y="352.05" width="425" height="45" rx="10" ry="10"/>
    <rect class="cls-1" x="37.91" y="301.14" width="425" height="45" rx="10" ry="10"/>
    <circle class="cls-8" cx="251.02" cy="476.29" r="20"/>
    <text class="cls-3" transform="translate(50 485.69)"><tspan x="0" y="0">#23394E</tspan></text>
    <text class="cls-3" transform="translate(373.14 485.69)"><tspan x="0" y="0">3.21:1</tspan></text>
    <rect class="cls-1" x="37.91" y="453.79" width="425" height="45" rx="10" ry="10"/>
    <circle class="cls-8" cx="251.02" cy="527.13" r="20"/>
    <text class="cls-3" transform="translate(50 536.52)"><tspan x="0" y="0">#23394E</tspan></text>
    <text class="cls-3" transform="translate(373.14 536.52)"><tspan x="0" y="0">3.21:1</tspan></text>
    <rect class="cls-1" x="37.91" y="504.63" width="425" height="45" rx="10" ry="10"/>
  </g>
</svg>