<?xml version="1.0" encoding="UTF-8"?>
<svg id="Layer_2" data-name="Layer 2" xmlns="http://www.w3.org/2000/svg" viewBox="0 0 500 1200">
  <defs>
    <style>
      .cls-1, .cls-2, .cls-3 {
        fill: #fff;
      }

      .cls-4 {
        fill: #f8db8b;
      }

      .cls-5 {
        fill: none;
        stroke: #fff;
        stroke-miterlimit: 10;
      }

      .cls-6 {
        letter-spacing: 0em;
      }

      .cls-7 {
        fill: #d8c0fb;
      }

      .cls-8 {
        letter-spacing: 0em;
      }

      .cls-9 {
        fill: #ccd3e0;
      }

      .cls-10 {
        letter-spacing: .01em;
      }

      .cls-11 {
        letter-spacing: -.01em;
      }

      .cls-12 {
        letter-spacing: 0em;
      }

      .cls-13 {
        fill: #f3f4f7;
      }

      .cls-2 {
        font-size: 32px;
      }

      .cls-2, .cls-3 {
        font-family: MyriadPro-Regular, 'Myriad Pro';
      }

      .cls-3 {
        font-size: 20px;
      }

      .cls-14 {
        letter-spacing: -.02em;
      }

      .cls-15 {
        letter-spacing: 0em;
      }

      .cls-16 {
        fill: #f2c037;
      }

      .cls-17 {
        letter-spacing: 0em;
      }

      .cls-18 {
        fill: #c9e5f8;
      }

      .cls-19 {
        fill: #666;
      }
    </style>
  </defs>
  <g id="Layer_1-2" data-name="Layer 1">
    <rect class="cls-19" width="500" height="1200"/>
    <circle class="cls-1" cx="251.02" cy="120" r="20"/>
    <text class="cls-2" transform="translate(48.98 129.39)"><tspan x="0" y="0">#FFFFFF</tspan></text>
    <text class="cls-2" transform="translate(372.12 129.74)"><tspan x="0" y="0">5.74:1</tspan></text>
    <circle class="cls-13" cx="251.02" cy="170.91" r="20"/>
    <text class="cls-2" transform="translate(48.98 180.3)"><tspan x="0" y="0">#F3F4F7</tspan></text>
    <text class="cls-2" transform="translate(372.11 180.3)"><tspan x="0" y="0">5.22:1</tspan></text>
    <circle class="cls-18" cx="251.02" cy="221.82" r="20"/>
    <text class="cls-2" transform="translate(48.98 231.21)"><tspan x="0" y="0">#C9E5F8</tspan></text>
    <text class="cls-2" transform="translate(372.11 231.21)"><tspan x="0" y="0">4.39:1</tspan></text>
    <circle class="cls-4" cx="251.02" cy="272.73" r="20"/>
    <text class="cls-2" transform="translate(48.98 282.12)"><tspan x="0" y="0">#F8DB8B</tspan></text>
    <text class="cls-2" transform="translate(372.12 282.12)"><tspan x="0" y="0">4.24:1</tspan></text>
    <circle class="cls-9" cx="251.02" cy="323.64" r="20"/>
    <text class="cls-2" transform="translate(48.98 333.03)"><tspan x="0" y="0">#</tspan><tspan class="cls-14" x="15.9" y="0">C</tspan><tspan x="33.79" y="0">CD3E0</tspan></text>
    <text class="cls-2" transform="translate(372.12 333.03)"><tspan x="0" y="0">3.82:1</tspan></text>
    <circle class="cls-7" cx="251.02" cy="374.55" r="20"/>
    <text class="cls-2" transform="translate(48.98 383.94)"><tspan x="0" y="0">#D8C0FB</tspan></text>
    <text class="cls-2" transform="translate(372.11 383.94)"><tspan x="0" y="0">3.51:1</tspan></text>
    <circle class="cls-16" cx="251.02" cy="425.45" r="20"/>
    <text class="cls-2" transform="translate(48.98 434.85)"><tspan x="0" y="0">#F2C037</tspan></text>
    <text class="cls-2" transform="translate(372.12 434.85)"><tspan x="0" y="0">3.38:1</tspan></text>
    <text class="cls-2" transform="translate(192.8 59.42)"><tspan x="0" y="0">#666666</tspan></text>
    <rect class="cls-5" x="37.5" y="402.95" width="425" height="45" rx="10" ry="10"/>
    <g>
      <rect class="cls-5" x="37.5" y="1131.85" width="425" height="45" rx="10" ry="10"/>
      <text class="cls-3" transform="translate(72.15 1160.22)"><tspan class="cls-15" x="0" y="0">C</tspan><tspan x="11.46" y="0">an use </tspan><tspan class="cls-11" x="69.64" y="0">f</tspan><tspan x="75.22" y="0">or la</tspan><tspan class="cls-8" x="111.34" y="0">r</tspan><tspan x="117.72" y="0">ge </tspan><tspan class="cls-6" x="143.16" y="0">t</tspan><tspan class="cls-12" x="149.66" y="0">e</tspan><tspan class="cls-10" x="159.62" y="0">x</tspan><tspan x="169.14" y="0">t and UI eleme</tspan><tspan class="cls-17" x="289.68" y="0">n</tspan><tspan x="300.7" y="0">ts only</tspan></text>
    </g>
    <rect class="cls-5" x="37.5" y="352.05" width="425" height="45" rx="10" ry="10"/>
    <rect class="cls-5" x="37.5" y="301.14" width="425" height="45" rx="10" ry="10"/>
    <rect class="cls-5" x="37.5" y="250.23" width="425" height="45" rx="10" ry="10"/>
  </g>
</svg>