<?xml version="1.0" encoding="UTF-8"?>
<svg id="Layer_2" data-name="Layer 2" xmlns="http://www.w3.org/2000/svg" viewBox="0 0 500 1200">
  <defs>
    <style>
      .cls-1 {
        fill: none;
        stroke: #231f20;
        stroke-miterlimit: 10;
      }

      .cls-2 {
        font-size: 20px;
      }

      .cls-2, .cls-3 {
        font-family: MyriadPro-Regular, 'Myriad Pro';
      }

      .cls-4 {
        fill: #e4a0c6;
      }

      .cls-5 {
        fill: #19294d;
      }

      .cls-6 {
        fill: #3d3d3d;
      }

      .cls-7 {
        fill: #0e476c;
      }

      .cls-8 {
        letter-spacing: 0em;
      }

      .cls-9 {
        letter-spacing: 0em;
      }

      .cls-10 {
        fill: #37586d;
      }

      .cls-11 {
        fill: #23394e;
      }

      .cls-12 {
        letter-spacing: .01em;
      }

      .cls-13 {
        letter-spacing: -.01em;
      }

      .cls-14 {
        letter-spacing: 0em;
      }

      .cls-15 {
        fill: #0f192e;
      }

      .cls-16 {
        fill: #0a111f;
      }

      .cls-17 {
        letter-spacing: 0em;
      }

      .cls-3 {
        font-size: 32px;
      }

      .cls-18 {
        fill: #02173b;
      }

      .cls-19 {
        letter-spacing: 0em;
      }
    </style>
  </defs>
  <g id="Layer_1-2" data-name="Layer 1">
    <rect class="cls-4" width="500" height="1200"/>
    <circle cx="250" cy="120" r="20"/>
    <text class="cls-3" transform="translate(48.98 129.39)"><tspan x="0" y="0">#000000</tspan></text>
    <text class="cls-3" transform="translate(355.7 129.74)"><tspan x="0" y="0">10.14:1</tspan></text>
    <circle class="cls-16" cx="250" cy="170.91" r="20"/>
    <text class="cls-3" transform="translate(48.98 180.3)"><tspan x="0" y="0">#0A111F</tspan></text>
    <text class="cls-3" transform="translate(372.11 180.3)"><tspan x="0" y="0">9.11:1</tspan></text>
    <circle class="cls-18" cx="250" cy="221.82" r="20"/>
    <text class="cls-3" transform="translate(48.98 231.21)"><tspan x="0" y="0">#02173B</tspan></text>
    <text class="cls-3" transform="translate(372.11 231.21)"><tspan x="0" y="0">8.54:1</tspan></text>
    <circle class="cls-15" cx="250" cy="272.73" r="20"/>
    <text class="cls-3" transform="translate(48.98 282.12)"><tspan x="0" y="0">#0F192E</tspan></text>
    <text class="cls-3" transform="translate(372.12 282.12)"><tspan x="0" y="0">8.46:1</tspan></text>
    <circle class="cls-5" cx="250" cy="323.64" r="20"/>
    <text class="cls-3" transform="translate(48.98 333.03)"><tspan x="0" y="0">#19294D</tspan></text>
    <text class="cls-3" transform="translate(372.12 333.03)"><tspan x="0" y="0">6.92:1</tspan></text>
    <circle class="cls-11" cx="250" cy="374.55" r="20"/>
    <text class="cls-3" transform="translate(48.98 383.94)"><tspan x="0" y="0">#23394E</tspan></text>
    <text class="cls-3" transform="translate(372.11 383.94)"><tspan x="0" y="0">5.74:1</tspan></text>
    <circle class="cls-6" cx="250" cy="425.45" r="20"/>
    <text class="cls-3" transform="translate(48.98 434.85)"><tspan x="0" y="0">#3D3D3D</tspan></text>
    <text class="cls-3" transform="translate(372.12 434.85)"><tspan x="0" y="0">5.25:1</tspan></text>
    <text class="cls-3" transform="translate(190.48 59.42)"><tspan x="0" y="0">#E4A0C6</tspan></text>
    <g>
      <rect class="cls-1" x="37.5" y="1131.85" width="425" height="45" rx="10" ry="10"/>
      <text class="cls-2" transform="translate(72.15 1160.22)"><tspan class="cls-17" x="0" y="0">C</tspan><tspan x="11.46" y="0">an use </tspan><tspan class="cls-13" x="69.64" y="0">f</tspan><tspan x="75.22" y="0">or la</tspan><tspan class="cls-9" x="111.34" y="0">r</tspan><tspan x="117.72" y="0">ge </tspan><tspan class="cls-8" x="143.16" y="0">t</tspan><tspan class="cls-14" x="149.66" y="0">e</tspan><tspan class="cls-12" x="159.62" y="0">x</tspan><tspan x="169.14" y="0">t and UI eleme</tspan><tspan class="cls-19" x="289.68" y="0">n</tspan><tspan x="300.7" y="0">ts only</tspan></text>
    </g>
    <circle class="cls-7" cx="250" cy="476.29" r="20"/>
    <text class="cls-3" transform="translate(50 485.69)"><tspan x="0" y="0">#0E476C</tspan></text>
    <text class="cls-3" transform="translate(373.14 485.69)"><tspan x="0" y="0">4.75:1</tspan></text>
    <circle class="cls-10" cx="250" cy="527.13" r="20"/>
    <text class="cls-3" transform="translate(50 536.52)"><tspan x="0" y="0">#37586D</tspan></text>
    <text class="cls-3" transform="translate(373.14 536.52)"><tspan x="0" y="0">3.65:1</tspan></text>
    <rect class="cls-1" x="37.5" y="504.63" width="425" height="45" rx="10" ry="10"/>
  </g>
</svg>