<?xml version="1.0" encoding="UTF-8"?>
<svg id="Layer_2" data-name="Layer 2" xmlns="http://www.w3.org/2000/svg" viewBox="0 0 500 1200">
  <defs>
    <style>
      .cls-1 {
        fill: #e4a0c6;
      }

      .cls-2, .cls-3, .cls-4 {
        fill: #fff;
      }

      .cls-5 {
        fill: #f8db8b;
      }

      .cls-6 {
        fill: none;
        stroke: #fff;
        stroke-miterlimit: 10;
      }

      .cls-7 {
        letter-spacing: 0em;
      }

      .cls-8 {
        fill: #77beed;
      }

      .cls-9 {
        fill: #d8c0fb;
      }

      .cls-10 {
        letter-spacing: 0em;
      }

      .cls-11 {
        fill: #9f65f6;
      }

      .cls-12 {
        fill: #ccd3e0;
      }

      .cls-13 {
        letter-spacing: .01em;
      }

      .cls-14 {
        letter-spacing: -.01em;
      }

      .cls-15 {
        letter-spacing: 0em;
      }

      .cls-16 {
        fill: #f3f4f7;
      }

      .cls-3 {
        font-size: 32px;
      }

      .cls-3, .cls-4 {
        font-family: MyriadPro-Regular, 'Myriad Pro';
      }

      .cls-4 {
        font-size: 20px;
      }

      .cls-17 {
        letter-spacing: -.02em;
      }

      .cls-18 {
        fill: #0a111f;
      }

      .cls-19 {
        letter-spacing: 0em;
      }

      .cls-20 {
        fill: #f2c037;
      }

      .cls-21 {
        fill: #8fbc76;
      }

      .cls-22 {
        fill: #d39e0d;
      }

      .cls-23 {
        fill: #873ef4;
      }

      .cls-24 {
        letter-spacing: 0em;
      }

      .cls-25 {
        fill: #537fca;
      }

      .cls-26 {
        fill: #ad347c;
      }

      .cls-27 {
        letter-spacing: 0em;
      }

      .cls-28 {
        fill: #c9e5f8;
      }

      .cls-29 {
        fill: #666;
      }

      .cls-30 {
        fill: #537b3d;
      }
    </style>
  </defs>
  <g id="Layer_1-2" data-name="Layer 1">
    <rect class="cls-18" width="500" height="1200"/>
    <circle class="cls-2" cx="251.02" cy="120" r="20"/>
    <text class="cls-3" transform="translate(48.98 129.39)"><tspan x="0" y="0">#FFFFFF</tspan></text>
    <text class="cls-3" transform="translate(355.7 129.74)"><tspan x="0" y="0">18.87:1</tspan></text>
    <circle class="cls-16" cx="251.02" cy="170.91" r="20"/>
    <text class="cls-3" transform="translate(48.98 180.3)"><tspan x="0" y="0">#F3F4F7</tspan></text>
    <text class="cls-3" transform="translate(355.7 180.3)"><tspan x="0" y="0">17.16:1</tspan></text>
    <circle class="cls-28" cx="251.02" cy="221.82" r="20"/>
    <text class="cls-3" transform="translate(48.98 231.21)"><tspan x="0" y="0">#C9E5F8</tspan></text>
    <text class="cls-3" transform="translate(355.7 231.21)"><tspan x="0" y="0">14.42:1</tspan></text>
    <circle class="cls-5" cx="251.02" cy="272.73" r="20"/>
    <text class="cls-3" transform="translate(48.98 282.12)"><tspan x="0" y="0">#F8DB8B</tspan></text>
    <text class="cls-3" transform="translate(355.7 282.12)"><tspan x="0" y="0">13.92:1</tspan></text>
    <circle class="cls-12" cx="251.02" cy="323.64" r="20"/>
    <text class="cls-3" transform="translate(48.98 333.03)"><tspan x="0" y="0">#</tspan><tspan class="cls-17" x="15.9" y="0">C</tspan><tspan x="33.79" y="0">CD3E0</tspan></text>
    <text class="cls-3" transform="translate(355.7 333.03)"><tspan x="0" y="0">12.55:1</tspan></text>
    <circle class="cls-9" cx="251.02" cy="374.55" r="20"/>
    <text class="cls-3" transform="translate(48.98 383.94)"><tspan x="0" y="0">#D8C0FB</tspan></text>
    <text class="cls-3" transform="translate(355.7 383.94)"><tspan x="0" y="0">11.55:1</tspan></text>
    <circle class="cls-20" cx="251.02" cy="425.45" r="20"/>
    <text class="cls-3" transform="translate(48.98 434.85)"><tspan x="0" y="0">#F2C037</tspan></text>
    <text class="cls-3" transform="translate(355.7 434.85)"><tspan x="0" y="0">11.12:1</tspan></text>
    <circle class="cls-8" cx="251.02" cy="476.36" r="20"/>
    <text class="cls-3" transform="translate(48.98 485.76)"><tspan x="0" y="0">#77BEED</tspan></text>
    <text class="cls-3" transform="translate(372.12 485.76)"><tspan x="0" y="0">9.32:1</tspan></text>
    <circle class="cls-1" cx="251.02" cy="527.27" r="20"/>
    <text class="cls-3" transform="translate(48.98 536.66)"><tspan x="0" y="0">#E4A0C6</tspan></text>
    <text class="cls-3" transform="translate(372.11 536.66)"><tspan x="0" y="0">9.11:1</tspan></text>
    <circle class="cls-21" cx="251.02" cy="578.18" r="20"/>
    <text class="cls-3" transform="translate(48.98 587.57)"><tspan x="0" y="0">#8FBC76</tspan></text>
    <text class="cls-3" transform="translate(372.12 587.57)"><tspan x="0" y="0">8.65:1</tspan></text>
    <circle class="cls-22" cx="251.02" cy="629.09" r="20"/>
    <text class="cls-3" transform="translate(48.98 638.48)"><tspan x="0" y="0">#D39E0D</tspan></text>
    <text class="cls-3" transform="translate(372.12 638.48)"><tspan x="0" y="0">7.79:1</tspan></text>
    <text class="cls-3" transform="translate(191.63 59.42)"><tspan x="0" y="0">#0A111F</tspan></text>
    <circle class="cls-11" cx="251.89" cy="679.23" r="20"/>
    <text class="cls-3" transform="translate(49.84 688.63)"><tspan x="0" y="0">#9F65F6</tspan></text>
    <text class="cls-3" transform="translate(372.98 688.63)"><tspan x="0" y="0">5.09:1</tspan></text>
    <circle class="cls-25" cx="251.89" cy="730.14" r="20"/>
    <text class="cls-3" transform="translate(49.84 739.53)"><tspan x="0" y="0">#537F</tspan><tspan class="cls-27" x="80.73" y="0">C</tspan><tspan x="99.42" y="0">A</tspan></text>
    <text class="cls-3" transform="translate(372.98 739.53)"><tspan x="0" y="0">4.72:1</tspan></text>
    <circle class="cls-30" cx="251.89" cy="781.05" r="20"/>
    <text class="cls-3" transform="translate(49.84 790.44)"><tspan x="0" y="0">#537B3D</tspan></text>
    <text class="cls-3" transform="translate(372.98 790.44)"><tspan x="0" y="0">3.84:1</tspan></text>
    <circle class="cls-23" cx="251.89" cy="831.96" r="20"/>
    <text class="cls-3" transform="translate(49.84 841.35)"><tspan x="0" y="0">#873EF4</tspan></text>
    <text class="cls-3" transform="translate(372.98 841.35)"><tspan x="0" y="0">3.62:1</tspan></text>
    <circle class="cls-29" cx="251.89" cy="882.87" r="20"/>
    <text class="cls-3" transform="translate(49.84 892.26)"><tspan x="0" y="0">#666666</tspan></text>
    <text class="cls-3" transform="translate(372.98 892.26)"><tspan x="0" y="0">3.29:1</tspan></text>
    <circle class="cls-26" cx="251.89" cy="933.78" r="20"/>
    <text class="cls-3" transform="translate(49.84 943.17)"><tspan x="0" y="0">#AD347C</tspan></text>
    <text class="cls-3" transform="translate(389.39 943.17)"><tspan x="0" y="0">3.2:1</tspan></text>
    <rect class="cls-6" x="37.5" y="911.28" width="425" height="45" rx="10" ry="10"/>
    <rect class="cls-6" x="37.5" y="860.37" width="425" height="45" rx="10" ry="10"/>
    <rect class="cls-6" x="37.5" y="758.55" width="425" height="45" rx="10" ry="10"/>
    <rect class="cls-6" x="37.5" y="809.46" width="425" height="45" rx="10" ry="10"/>
    <g>
      <rect class="cls-6" x="37.5" y="1132.02" width="425" height="45" rx="10" ry="10"/>
      <text class="cls-4" transform="translate(72.15 1160.39)"><tspan class="cls-19" x="0" y="0">C</tspan><tspan x="11.46" y="0">an use </tspan><tspan class="cls-14" x="69.64" y="0">f</tspan><tspan x="75.22" y="0">or la</tspan><tspan class="cls-10" x="111.34" y="0">r</tspan><tspan x="117.72" y="0">ge </tspan><tspan class="cls-7" x="143.16" y="0">t</tspan><tspan class="cls-15" x="149.66" y="0">e</tspan><tspan class="cls-13" x="159.62" y="0">x</tspan><tspan x="169.14" y="0">t and UI eleme</tspan><tspan class="cls-24" x="289.68" y="0">n</tspan><tspan x="300.7" y="0">ts only</tspan></text>
    </g>
  </g>
</svg>