<svg xmlns="http://www.w3.org/2000/svg" xmlns:xlink="http://www.w3.org/1999/xlink" width="400" height="800" viewBox="0 0 400 800">
  <defs>
    <filter id="_2F5496" x="283" y="758" width="114" height="50" filterUnits="userSpaceOnUse">
      <feOffset dy="3" input="SourceAlpha"/>
      <feGaussianBlur stdDeviation="3" result="blur"/>
      <feFlood flood-opacity="0.161"/>
      <feComposite operator="in" in2="blur"/>
      <feComposite in="SourceGraphic"/>
    </filter>
    <filter id="Rectangle_128" x="4" y="6" width="393" height="118" filterUnits="userSpaceOnUse">
      <feOffset dy="3" input="SourceAlpha"/>
      <feGaussianBlur stdDeviation="3" result="blur-2"/>
      <feFlood flood-opacity="0.161"/>
      <feComposite operator="in" in2="blur-2"/>
      <feComposite in="SourceGraphic"/>
    </filter>
    <filter id="Rectangle_129" x="4" y="6" width="133" height="118" filterUnits="userSpaceOnUse">
      <feOffset dy="3" input="SourceAlpha"/>
      <feGaussianBlur stdDeviation="3" result="blur-3"/>
      <feFlood flood-opacity="0.161"/>
      <feComposite operator="in" in2="blur-3"/>
      <feComposite in="SourceGraphic"/>
    </filter>
    <filter id="Rectangle_128-2" x="4" y="113" width="393" height="118" filterUnits="userSpaceOnUse">
      <feOffset dy="3" input="SourceAlpha"/>
      <feGaussianBlur stdDeviation="3" result="blur-4"/>
      <feFlood flood-opacity="0.161"/>
      <feComposite operator="in" in2="blur-4"/>
      <feComposite in="SourceGraphic"/>
    </filter>
    <filter id="Rectangle_129-2" x="4" y="113" width="133" height="118" filterUnits="userSpaceOnUse">
      <feOffset dy="3" input="SourceAlpha"/>
      <feGaussianBlur stdDeviation="3" result="blur-5"/>
      <feFlood flood-opacity="0.161"/>
      <feComposite operator="in" in2="blur-5"/>
      <feComposite in="SourceGraphic"/>
    </filter>
    <filter id="Rectangle_128-3" x="4" y="220" width="393" height="118" filterUnits="userSpaceOnUse">
      <feOffset dy="3" input="SourceAlpha"/>
      <feGaussianBlur stdDeviation="3" result="blur-6"/>
      <feFlood flood-opacity="0.161"/>
      <feComposite operator="in" in2="blur-6"/>
      <feComposite in="SourceGraphic"/>
    </filter>
    <filter id="Rectangle_129-3" x="4" y="220" width="133" height="118" filterUnits="userSpaceOnUse">
      <feOffset dy="3" input="SourceAlpha"/>
      <feGaussianBlur stdDeviation="3" result="blur-7"/>
      <feFlood flood-opacity="0.161"/>
      <feComposite operator="in" in2="blur-7"/>
      <feComposite in="SourceGraphic"/>
    </filter>
    <filter id="Rectangle_128-4" x="4" y="327" width="393" height="118" filterUnits="userSpaceOnUse">
      <feOffset dy="3" input="SourceAlpha"/>
      <feGaussianBlur stdDeviation="3" result="blur-8"/>
      <feFlood flood-opacity="0.161"/>
      <feComposite operator="in" in2="blur-8"/>
      <feComposite in="SourceGraphic"/>
    </filter>
    <filter id="Rectangle_129-4" x="4" y="327" width="133" height="118" filterUnits="userSpaceOnUse">
      <feOffset dy="3" input="SourceAlpha"/>
      <feGaussianBlur stdDeviation="3" result="blur-9"/>
      <feFlood flood-opacity="0.161"/>
      <feComposite operator="in" in2="blur-9"/>
      <feComposite in="SourceGraphic"/>
    </filter>
    <filter id="Rectangle_128-5" x="4" y="434" width="393" height="118" filterUnits="userSpaceOnUse">
      <feOffset dy="3" input="SourceAlpha"/>
      <feGaussianBlur stdDeviation="3" result="blur-10"/>
      <feFlood flood-opacity="0.161"/>
      <feComposite operator="in" in2="blur-10"/>
      <feComposite in="SourceGraphic"/>
    </filter>
    <filter id="Rectangle_129-5" x="4" y="434" width="133" height="118" filterUnits="userSpaceOnUse">
      <feOffset dy="3" input="SourceAlpha"/>
      <feGaussianBlur stdDeviation="3" result="blur-11"/>
      <feFlood flood-opacity="0.161"/>
      <feComposite operator="in" in2="blur-11"/>
      <feComposite in="SourceGraphic"/>
    </filter>
    <filter id="Rectangle_128-6" x="4" y="541" width="393" height="118" filterUnits="userSpaceOnUse">
      <feOffset dy="3" input="SourceAlpha"/>
      <feGaussianBlur stdDeviation="3" result="blur-12"/>
      <feFlood flood-opacity="0.161"/>
      <feComposite operator="in" in2="blur-12"/>
      <feComposite in="SourceGraphic"/>
    </filter>
    <filter id="Rectangle_129-6" x="4" y="541" width="133" height="118" filterUnits="userSpaceOnUse">
      <feOffset dy="3" input="SourceAlpha"/>
      <feGaussianBlur stdDeviation="3" result="blur-13"/>
      <feFlood flood-opacity="0.161"/>
      <feComposite operator="in" in2="blur-13"/>
      <feComposite in="SourceGraphic"/>
    </filter>
    <clipPath id="clip-_2F5496-guide">
      <rect width="400" height="800"/>
    </clipPath>
  </defs>
  <g id="_2F5496-guide" data-name="2F5496-guide" clip-path="url(#clip-_2F5496-guide)">
    <rect width="400" height="800" fill="#2f5496"/>
    <g transform="matrix(1, 0, 0, 1, 0, 0)" filter="url(#_2F5496)">
      <text id="_2F5496-2" data-name="#2F5496" transform="translate(292 790)" fill="#fff" font-size="24" font-family="SegoeUI-Bold, Segoe UI" font-weight="700"><tspan x="0" y="0">#2F5496</tspan></text>
    </g>
    <g id="Group_72" data-name="Group 72" transform="translate(-13940 12)">
      <g transform="matrix(1, 0, 0, 1, 13940, -12)" filter="url(#Rectangle_128)">
        <g id="Rectangle_128-7" data-name="Rectangle 128" transform="translate(13 12)" fill="none" stroke="#fff" stroke-width="1">
          <rect width="375" height="100" rx="5" stroke="none"/>
          <rect x="0.5" y="0.5" width="374" height="99" rx="4.5" fill="none"/>
        </g>
      </g>
      <g transform="matrix(1, 0, 0, 1, 13940, -12)" filter="url(#Rectangle_129)">
        <path id="Rectangle_129-7" data-name="Rectangle 129" d="M5,0H115a0,0,0,0,1,0,0V100a0,0,0,0,1,0,0H5a5,5,0,0,1-5-5V5A5,5,0,0,1,5,0Z" transform="translate(13 12)" fill="#fff"/>
      </g>
      <text id="_7.42:1" data-name="7.42:1" transform="translate(13957 26)" fill="#2f5496" font-size="24" font-family="SegoeUI, Segoe UI"><tspan x="0" y="0">7.42:1</tspan></text>
      <text id="_FFFFFF" data-name="#FFFFFF" transform="translate(13957 94)" fill="#2f5496" font-size="24" font-family="SegoeUI, Segoe UI"><tspan x="0" y="0">#FFFFFF</tspan></text>
      <g id="Rectangle_101" data-name="Rectangle 101" transform="translate(14281 4)" fill="#2f5496" stroke="#fff" stroke-width="2">
        <rect width="40" height="25" rx="5" stroke="none"/>
        <rect x="1" y="1" width="38" height="23" rx="4" fill="none"/>
      </g>
      <text id="AAA" transform="translate(14301 23)" fill="#fff" font-size="16" font-family="SegoeUI-Bold, Segoe UI" font-weight="700"><tspan x="-16.875" y="0">AAA</tspan></text>
      <g id="Rectangle_100" data-name="Rectangle 100" transform="translate(14073 4)" fill="#2f5496" stroke="#fff" stroke-width="2">
        <rect width="40" height="25" rx="5" stroke="none"/>
        <rect x="1" y="1" width="38" height="23" rx="4" fill="none"/>
      </g>
      <text id="AA" transform="translate(14093 23)" fill="#fff" font-size="16" font-family="SegoeUI-Bold, Segoe UI" font-weight="700"><tspan x="-11.25" y="0">AA</tspan></text>
      <g id="Group_28" data-name="Group 28" transform="translate(196 335)">
        <text id="Normal_Text" data-name="Normal Text" transform="translate(13922 -286)" fill="#fff" font-size="16" font-family="SegoeUI, Segoe UI"><tspan x="-42.52" y="0">Normal Text</tspan></text>
        <text id="Large_Text" data-name="Large Text" transform="translate(13915 -265)" fill="#fff" font-size="16" font-family="SegoeUI, Segoe UI"><tspan x="-35.68" y="0">Large Text</tspan></text>
        <text id="UI_Elements" data-name="UI Elements" transform="translate(13921 -244)" fill="#fff" font-size="16" font-family="SegoeUI, Segoe UI"><tspan x="-41.691" y="0">UI Elements</tspan></text>
        <text id="Normal_Text-2" data-name="Normal Text" transform="translate(14082 -286)" fill="#fff" font-size="16" font-family="SegoeUI, Segoe UI"><tspan x="-42.52" y="0">Normal Text</tspan></text>
        <text id="Large_Text-2" data-name="Large Text" transform="translate(14089 -265)" fill="#fff" font-size="16" font-family="SegoeUI, Segoe UI"><tspan x="-35.68" y="0">Large Text</tspan></text>
        <text id="UI_Elements-2" data-name="UI Elements" transform="translate(14083 -244)" fill="#fff" font-size="16" font-family="SegoeUI, Segoe UI"><tspan x="-41.691" y="0">UI Elements</tspan></text>
      </g>
    </g>
    <g id="Group_74" data-name="Group 74" transform="translate(-14052 156)">
      <g transform="matrix(1, 0, 0, 1, 14052, -156)" filter="url(#Rectangle_128-2)">
        <g id="Rectangle_128-8" data-name="Rectangle 128" transform="translate(13 119)" fill="none" stroke="#f3f4f7" stroke-width="1">
          <rect width="375" height="100" rx="5" stroke="none"/>
          <rect x="0.5" y="0.5" width="374" height="99" rx="4.5" fill="none"/>
        </g>
      </g>
      <g transform="matrix(1, 0, 0, 1, 14052, -156)" filter="url(#Rectangle_129-2)">
        <path id="Rectangle_129-8" data-name="Rectangle 129" d="M5,0H115a0,0,0,0,1,0,0V100a0,0,0,0,1,0,0H5a5,5,0,0,1-5-5V5A5,5,0,0,1,5,0Z" transform="translate(13 119)" fill="#f3f4f7"/>
      </g>
      <text id="_6.74:1" data-name="6.74:1" transform="translate(14069 -11)" fill="#2f5496" font-size="24" font-family="SegoeUI, Segoe UI"><tspan x="0" y="0">6.74:1</tspan></text>
      <text id="_F3F4F7" data-name="#F3F4F7" transform="translate(14069 57)" fill="#2f5496" font-size="24" font-family="SegoeUI, Segoe UI"><tspan x="0" y="0">#F3F4F7</tspan></text>
      <g id="Rectangle_101-2" data-name="Rectangle 101" transform="translate(14393 -33)" fill="#2f5496" stroke="#f3f4f7" stroke-width="2">
        <rect width="40" height="25" rx="5" stroke="none"/>
        <rect x="1" y="1" width="38" height="23" rx="4" fill="none"/>
      </g>
      <text id="AAA-2" data-name="AAA" transform="translate(14413 -14)" fill="#f3f4f7" font-size="16" font-family="SegoeUI-Bold, Segoe UI" font-weight="700"><tspan x="-16.875" y="0">AAA</tspan></text>
      <g id="Rectangle_100-2" data-name="Rectangle 100" transform="translate(14185 -33)" fill="#2f5496" stroke="#f3f4f7" stroke-width="2">
        <rect width="40" height="25" rx="5" stroke="none"/>
        <rect x="1" y="1" width="38" height="23" rx="4" fill="none"/>
      </g>
      <text id="AA-2" data-name="AA" transform="translate(14205 -14)" fill="#f3f4f7" font-size="16" font-family="SegoeUI-Bold, Segoe UI" font-weight="700"><tspan x="-11.25" y="0">AA</tspan></text>
      <g id="Group_73" data-name="Group 73" transform="translate(308 195)">
        <text id="Normal_Text-3" data-name="Normal Text" transform="translate(13922 -183)" fill="#f3f4f7" font-size="16" font-family="SegoeUI, Segoe UI"><tspan x="-42.52" y="0">Normal Text</tspan></text>
        <text id="Large_Text-3" data-name="Large Text" transform="translate(13915 -162)" fill="#f3f4f7" font-size="16" font-family="SegoeUI, Segoe UI"><tspan x="-35.68" y="0">Large Text</tspan></text>
        <text id="UI_Elements-3" data-name="UI Elements" transform="translate(13921 -141)" fill="#f3f4f7" font-size="16" font-family="SegoeUI, Segoe UI"><tspan x="-41.691" y="0">UI Elements</tspan></text>
        <text id="Large_Text-4" data-name="Large Text" transform="translate(14080 -163)" fill="#f3f4f7" font-size="20" font-family="SegoeUI, Segoe UI"><tspan x="-44.6" y="0">Large Text</tspan></text>
        <text id="UI_Elements-4" data-name="UI Elements" transform="translate(14073 -139)" fill="#f3f4f7" font-size="20" font-family="SegoeUI, Segoe UI"><tspan x="-52.114" y="0">UI Elements</tspan></text>
      </g>
    </g>
    <g id="Group_76" data-name="Group 76" transform="translate(-13592 300)">
      <g transform="matrix(1, 0, 0, 1, 13592, -300)" filter="url(#Rectangle_128-3)">
        <g id="Rectangle_128-9" data-name="Rectangle 128" transform="translate(13 226)" fill="none" stroke="#c9e5f8" stroke-width="1">
          <rect width="375" height="100" rx="5" stroke="none"/>
          <rect x="0.5" y="0.5" width="374" height="99" rx="4.5" fill="none"/>
        </g>
      </g>
      <g transform="matrix(1, 0, 0, 1, 13592, -300)" filter="url(#Rectangle_129-3)">
        <path id="Rectangle_129-9" data-name="Rectangle 129" d="M5,0H115a0,0,0,0,1,0,0V100a0,0,0,0,1,0,0H5a5,5,0,0,1-5-5V5A5,5,0,0,1,5,0Z" transform="translate(13 226)" fill="#c9e5f8"/>
      </g>
      <text id="_5.67:1" data-name="5.67:1" transform="translate(13609 -48)" fill="#2f5496" font-size="24" font-family="SegoeUI, Segoe UI"><tspan x="0" y="0">5.67:1</tspan></text>
      <text id="_C9E5F8" data-name="#C9E5F8" transform="translate(13609 20)" fill="#2f5496" font-size="24" font-family="SegoeUI, Segoe UI"><tspan x="0" y="0">#C9E5F8</tspan></text>
      <g id="Rectangle_101-3" data-name="Rectangle 101" transform="translate(13933 -70)" fill="#2f5496" stroke="#c9e5f8" stroke-width="2">
        <rect width="40" height="25" rx="5" stroke="none"/>
        <rect x="1" y="1" width="38" height="23" rx="4" fill="none"/>
      </g>
      <text id="AAA-3" data-name="AAA" transform="translate(13953 -51)" fill="#c9e5f8" font-size="16" font-family="SegoeUI-Bold, Segoe UI" font-weight="700"><tspan x="-16.875" y="0">AAA</tspan></text>
      <g id="Rectangle_100-3" data-name="Rectangle 100" transform="translate(13725 -70)" fill="#2f5496" stroke="#c9e5f8" stroke-width="2">
        <rect width="40" height="25" rx="5" stroke="none"/>
        <rect x="1" y="1" width="38" height="23" rx="4" fill="none"/>
      </g>
      <text id="AA-3" data-name="AA" transform="translate(13745 -51)" fill="#c9e5f8" font-size="16" font-family="SegoeUI-Bold, Segoe UI" font-weight="700"><tspan x="-11.25" y="0">AA</tspan></text>
      <g id="Group_75" data-name="Group 75" transform="translate(-152 157)">
        <text id="Normal_Text-4" data-name="Normal Text" transform="translate(13922 -183)" fill="#c9e5f8" font-size="16" font-family="SegoeUI, Segoe UI"><tspan x="-42.52" y="0">Normal Text</tspan></text>
        <text id="Large_Text-5" data-name="Large Text" transform="translate(13915 -162)" fill="#c9e5f8" font-size="16" font-family="SegoeUI, Segoe UI"><tspan x="-35.68" y="0">Large Text</tspan></text>
        <text id="UI_Elements-5" data-name="UI Elements" transform="translate(13921 -141)" fill="#c9e5f8" font-size="16" font-family="SegoeUI, Segoe UI"><tspan x="-41.691" y="0">UI Elements</tspan></text>
        <text id="Large_Text-6" data-name="Large Text" transform="translate(14080 -163)" fill="#c9e5f8" font-size="20" font-family="SegoeUI, Segoe UI"><tspan x="-44.6" y="0">Large Text</tspan></text>
        <text id="UI_Elements-6" data-name="UI Elements" transform="translate(14073 -139)" fill="#c9e5f8" font-size="20" font-family="SegoeUI, Segoe UI"><tspan x="-52.114" y="0">UI Elements</tspan></text>
      </g>
    </g>
    <g id="Group_77" data-name="Group 77" transform="translate(-13706 379)">
      <g transform="matrix(1, 0, 0, 1, 13706, -379)" filter="url(#Rectangle_128-4)">
        <g id="Rectangle_128-10" data-name="Rectangle 128" transform="translate(13 333)" fill="none" stroke="#fad980" stroke-width="1">
          <rect width="375" height="100" rx="5" stroke="none"/>
          <rect x="0.5" y="0.5" width="374" height="99" rx="4.5" fill="none"/>
        </g>
      </g>
      <g transform="matrix(1, 0, 0, 1, 13706, -379)" filter="url(#Rectangle_129-4)">
        <path id="Rectangle_129-10" data-name="Rectangle 129" d="M5,0H115a0,0,0,0,1,0,0V100a0,0,0,0,1,0,0H5a5,5,0,0,1-5-5V5A5,5,0,0,1,5,0Z" transform="translate(13 333)" fill="#fad980"/>
      </g>
      <text id="_5.4:1" data-name="5.4:1" transform="translate(13723 -20)" fill="#2f5496" font-size="24" font-family="SegoeUI, Segoe UI"><tspan x="0" y="0">5.4:1</tspan></text>
      <text id="_FAD980" data-name="#FAD980" transform="translate(13723 48)" fill="#2f5496" font-size="24" font-family="SegoeUI, Segoe UI"><tspan x="0" y="0">#FAD980</tspan></text>
      <g id="Rectangle_101-4" data-name="Rectangle 101" transform="translate(14047 -42)" fill="#2f5496" stroke="#fad980" stroke-width="2">
        <rect width="40" height="25" rx="5" stroke="none"/>
        <rect x="1" y="1" width="38" height="23" rx="4" fill="none"/>
      </g>
      <text id="AAA-4" data-name="AAA" transform="translate(14067 -23)" fill="#fad980" font-size="16" font-family="SegoeUI-Bold, Segoe UI" font-weight="700"><tspan x="-16.875" y="0">AAA</tspan></text>
      <g id="Rectangle_100-4" data-name="Rectangle 100" transform="translate(13839 -42)" fill="#2f5496" stroke="#fad980" stroke-width="2">
        <rect width="40" height="25" rx="5" stroke="none"/>
        <rect x="1" y="1" width="38" height="23" rx="4" fill="none"/>
      </g>
      <text id="AA-4" data-name="AA" transform="translate(13859 -23)" fill="#fad980" font-size="16" font-family="SegoeUI-Bold, Segoe UI" font-weight="700"><tspan x="-11.25" y="0">AA</tspan></text>
      <g id="Group_69" data-name="Group 69" transform="translate(-38 185)">
        <text id="Normal_Text-5" data-name="Normal Text" transform="translate(13922 -183)" fill="#fad980" font-size="16" font-family="SegoeUI, Segoe UI"><tspan x="-42.52" y="0">Normal Text</tspan></text>
        <text id="Large_Text-7" data-name="Large Text" transform="translate(13915 -162)" fill="#fad980" font-size="16" font-family="SegoeUI, Segoe UI"><tspan x="-35.68" y="0">Large Text</tspan></text>
        <text id="UI_Elements-7" data-name="UI Elements" transform="translate(13921 -141)" fill="#fad980" font-size="16" font-family="SegoeUI, Segoe UI"><tspan x="-41.691" y="0">UI Elements</tspan></text>
        <text id="Large_Text-8" data-name="Large Text" transform="translate(14080 -163)" fill="#fad980" font-size="20" font-family="SegoeUI, Segoe UI"><tspan x="-44.6" y="0">Large Text</tspan></text>
        <text id="UI_Elements-8" data-name="UI Elements" transform="translate(14073 -139)" fill="#fad980" font-size="20" font-family="SegoeUI, Segoe UI"><tspan x="-52.114" y="0">UI Elements</tspan></text>
      </g>
    </g>
    <g id="Group_80" data-name="Group 80" transform="translate(-13769 479)">
      <g transform="matrix(1, 0, 0, 1, 13769, -479)" filter="url(#Rectangle_128-5)">
        <g id="Rectangle_128-11" data-name="Rectangle 128" transform="translate(13 440)" fill="none" stroke="#ccd3e0" stroke-width="1">
          <rect width="375" height="100" rx="5" stroke="none"/>
          <rect x="0.5" y="0.5" width="374" height="99" rx="4.5" fill="none"/>
        </g>
      </g>
      <g transform="matrix(1, 0, 0, 1, 13769, -479)" filter="url(#Rectangle_129-5)">
        <path id="Rectangle_129-11" data-name="Rectangle 129" d="M5,0H115a0,0,0,0,1,0,0V100a0,0,0,0,1,0,0H5a5,5,0,0,1-5-5V5A5,5,0,0,1,5,0Z" transform="translate(13 440)" fill="#ccd3e0"/>
      </g>
      <text id="_4.93:1" data-name="4.93:1" transform="translate(13786 -13)" fill="#2f5496" font-size="24" font-family="SegoeUI, Segoe UI"><tspan x="0" y="0">4.93:1</tspan></text>
      <text id="_CCD3E0" data-name="#CCD3E0" transform="translate(13786 55)" fill="#2f5496" font-size="24" font-family="SegoeUI, Segoe UI"><tspan x="0" y="0">#CCD3E0</tspan></text>
      <g id="Rectangle_101-5" data-name="Rectangle 101" transform="translate(14110 -35)" fill="#2f5496" stroke="#ccd3e0" stroke-width="2">
        <rect width="40" height="25" rx="5" stroke="none"/>
        <rect x="1" y="1" width="38" height="23" rx="4" fill="none"/>
      </g>
      <text id="AAA-5" data-name="AAA" transform="translate(14130 -16)" fill="#ccd3e0" font-size="16" font-family="SegoeUI-Bold, Segoe UI" font-weight="700"><tspan x="-16.875" y="0">AAA</tspan></text>
      <g id="Rectangle_100-5" data-name="Rectangle 100" transform="translate(13902 -35)" fill="#2f5496" stroke="#ccd3e0" stroke-width="2">
        <rect width="40" height="25" rx="5" stroke="none"/>
        <rect x="1" y="1" width="38" height="23" rx="4" fill="none"/>
      </g>
      <text id="AA-5" data-name="AA" transform="translate(13922 -16)" fill="#ccd3e0" font-size="16" font-family="SegoeUI-Bold, Segoe UI" font-weight="700"><tspan x="-11.25" y="0">AA</tspan></text>
      <g id="Group_78" data-name="Group 78" transform="translate(23 192)">
        <text id="Normal_Text-6" data-name="Normal Text" transform="translate(13922 -183)" fill="#ccd3e0" font-size="16" font-family="SegoeUI, Segoe UI"><tspan x="-42.52" y="0">Normal Text</tspan></text>
        <text id="Large_Text-9" data-name="Large Text" transform="translate(13915 -162)" fill="#ccd3e0" font-size="16" font-family="SegoeUI, Segoe UI"><tspan x="-35.68" y="0">Large Text</tspan></text>
        <text id="UI_Elements-9" data-name="UI Elements" transform="translate(13921 -141)" fill="#ccd3e0" font-size="16" font-family="SegoeUI, Segoe UI"><tspan x="-41.691" y="0">UI Elements</tspan></text>
        <text id="Large_Text-10" data-name="Large Text" transform="translate(14080 -163)" fill="#ccd3e0" font-size="20" font-family="SegoeUI, Segoe UI"><tspan x="-44.6" y="0">Large Text</tspan></text>
        <text id="UI_Elements-10" data-name="UI Elements" transform="translate(14073 -139)" fill="#ccd3e0" font-size="20" font-family="SegoeUI, Segoe UI"><tspan x="-52.114" y="0">UI Elements</tspan></text>
      </g>
    </g>
    <g id="Group_81" data-name="Group 81" transform="translate(-13753 575)">
      <g id="Group_27" data-name="Group 27" transform="translate(-2 240)">
        <text id="Large_Text-11" data-name="Large Text" transform="translate(13936 -203)" fill="#77beed" font-size="20" font-family="SegoeUI, Segoe UI"><tspan x="-44.6" y="0">Large Text</tspan></text>
        <text id="UI_Elements-11" data-name="UI Elements" transform="translate(13942 -175)" fill="#77beed" font-size="20" font-family="SegoeUI, Segoe UI"><tspan x="-52.114" y="0">UI Elements</tspan></text>
      </g>
      <g transform="matrix(1, 0, 0, 1, 13753, -575)" filter="url(#Rectangle_128-6)">
        <g id="Rectangle_128-12" data-name="Rectangle 128" transform="translate(13 547)" fill="none" stroke="#77beed" stroke-width="1">
          <rect width="375" height="100" rx="5" stroke="none"/>
          <rect x="0.5" y="0.5" width="374" height="99" rx="4.5" fill="none"/>
        </g>
      </g>
      <g transform="matrix(1, 0, 0, 1, 13753, -575)" filter="url(#Rectangle_129-6)">
        <path id="Rectangle_129-12" data-name="Rectangle 129" d="M5,0H115a0,0,0,0,1,0,0V100a0,0,0,0,1,0,0H5a5,5,0,0,1-5-5V5A5,5,0,0,1,5,0Z" transform="translate(13 547)" fill="#77beed"/>
      </g>
      <text id="_3.66:1" data-name="3.66:1" transform="translate(13770 -2)" fill="#2f5496" font-size="24" font-family="SegoeUI, Segoe UI"><tspan x="0" y="0">3.66:1</tspan></text>
      <text id="_77BEED" data-name="#77BEED" transform="translate(13770 66)" fill="#2f5496" font-size="24" font-family="SegoeUI, Segoe UI"><tspan x="0" y="0">#77BEED</tspan></text>
      <g id="Rectangle_101-6" data-name="Rectangle 101" transform="translate(14094 -24)" fill="#2f5496" stroke="#77beed" stroke-width="2">
        <rect width="40" height="25" rx="5" stroke="none"/>
        <rect x="1" y="1" width="38" height="23" rx="4" fill="none"/>
      </g>
      <text id="AAA-6" data-name="AAA" transform="translate(14114 -5)" fill="#77beed" font-size="16" font-family="SegoeUI-Bold, Segoe UI" font-weight="700"><tspan x="-16.875" y="0">AAA</tspan></text>
      <g id="Rectangle_100-6" data-name="Rectangle 100" transform="translate(13886 -24)" fill="#2f5496" stroke="#77beed" stroke-width="2">
        <rect width="40" height="25" rx="5" stroke="none"/>
        <rect x="1" y="1" width="38" height="23" rx="4" fill="none"/>
      </g>
      <text id="AA-6" data-name="AA" transform="translate(13906 -5)" fill="#77beed" font-size="16" font-family="SegoeUI-Bold, Segoe UI" font-weight="700"><tspan x="-11.25" y="0">AA</tspan></text>
    </g>
  </g>
</svg>
