<svg xmlns="http://www.w3.org/2000/svg" xmlns:xlink="http://www.w3.org/1999/xlink" width="400" height="800" viewBox="0 0 400 800">
  <defs>
    <filter id="_525252" x="282" y="758" width="116" height="50" filterUnits="userSpaceOnUse">
      <feOffset dy="3" input="SourceAlpha"/>
      <feGaussianBlur stdDeviation="3" result="blur"/>
      <feFlood flood-opacity="0.161"/>
      <feComposite operator="in" in2="blur"/>
      <feComposite in="SourceGraphic"/>
    </filter>
    <filter id="Rectangle_128" x="4" y="6" width="393" height="118" filterUnits="userSpaceOnUse">
      <feOffset dy="3" input="SourceAlpha"/>
      <feGaussianBlur stdDeviation="3" result="blur-2"/>
      <feFlood flood-opacity="0.161"/>
      <feComposite operator="in" in2="blur-2"/>
      <feComposite in="SourceGraphic"/>
    </filter>
    <filter id="Rectangle_129" x="4" y="6" width="133" height="118" filterUnits="userSpaceOnUse">
      <feOffset dy="3" input="SourceAlpha"/>
      <feGaussianBlur stdDeviation="3" result="blur-3"/>
      <feFlood flood-opacity="0.161"/>
      <feComposite operator="in" in2="blur-3"/>
      <feComposite in="SourceGraphic"/>
    </filter>
    <filter id="Rectangle_128-2" x="4" y="113" width="393" height="118" filterUnits="userSpaceOnUse">
      <feOffset dy="3" input="SourceAlpha"/>
      <feGaussianBlur stdDeviation="3" result="blur-4"/>
      <feFlood flood-opacity="0.161"/>
      <feComposite operator="in" in2="blur-4"/>
      <feComposite in="SourceGraphic"/>
    </filter>
    <filter id="Rectangle_129-2" x="4" y="113" width="133" height="118" filterUnits="userSpaceOnUse">
      <feOffset dy="3" input="SourceAlpha"/>
      <feGaussianBlur stdDeviation="3" result="blur-5"/>
      <feFlood flood-opacity="0.161"/>
      <feComposite operator="in" in2="blur-5"/>
      <feComposite in="SourceGraphic"/>
    </filter>
    <filter id="Rectangle_128-3" x="4" y="220" width="393" height="118" filterUnits="userSpaceOnUse">
      <feOffset dy="3" input="SourceAlpha"/>
      <feGaussianBlur stdDeviation="3" result="blur-6"/>
      <feFlood flood-opacity="0.161"/>
      <feComposite operator="in" in2="blur-6"/>
      <feComposite in="SourceGraphic"/>
    </filter>
    <filter id="Rectangle_129-3" x="4" y="220" width="133" height="118" filterUnits="userSpaceOnUse">
      <feOffset dy="3" input="SourceAlpha"/>
      <feGaussianBlur stdDeviation="3" result="blur-7"/>
      <feFlood flood-opacity="0.161"/>
      <feComposite operator="in" in2="blur-7"/>
      <feComposite in="SourceGraphic"/>
    </filter>
    <filter id="Rectangle_128-4" x="4" y="327" width="393" height="118" filterUnits="userSpaceOnUse">
      <feOffset dy="3" input="SourceAlpha"/>
      <feGaussianBlur stdDeviation="3" result="blur-8"/>
      <feFlood flood-opacity="0.161"/>
      <feComposite operator="in" in2="blur-8"/>
      <feComposite in="SourceGraphic"/>
    </filter>
    <filter id="Rectangle_129-4" x="4" y="327" width="133" height="118" filterUnits="userSpaceOnUse">
      <feOffset dy="3" input="SourceAlpha"/>
      <feGaussianBlur stdDeviation="3" result="blur-9"/>
      <feFlood flood-opacity="0.161"/>
      <feComposite operator="in" in2="blur-9"/>
      <feComposite in="SourceGraphic"/>
    </filter>
    <filter id="Rectangle_128-5" x="4" y="541" width="393" height="118" filterUnits="userSpaceOnUse">
      <feOffset dy="3" input="SourceAlpha"/>
      <feGaussianBlur stdDeviation="3" result="blur-10"/>
      <feFlood flood-opacity="0.161"/>
      <feComposite operator="in" in2="blur-10"/>
      <feComposite in="SourceGraphic"/>
    </filter>
    <filter id="Rectangle_129-5" x="4" y="541" width="133" height="118" filterUnits="userSpaceOnUse">
      <feOffset dy="3" input="SourceAlpha"/>
      <feGaussianBlur stdDeviation="3" result="blur-11"/>
      <feFlood flood-opacity="0.161"/>
      <feComposite operator="in" in2="blur-11"/>
      <feComposite in="SourceGraphic"/>
    </filter>
    <filter id="Rectangle_128-6" x="4" y="434" width="393" height="118" filterUnits="userSpaceOnUse">
      <feOffset dy="3" input="SourceAlpha"/>
      <feGaussianBlur stdDeviation="3" result="blur-12"/>
      <feFlood flood-opacity="0.161"/>
      <feComposite operator="in" in2="blur-12"/>
      <feComposite in="SourceGraphic"/>
    </filter>
    <filter id="Rectangle_129-6" x="4" y="434" width="133" height="118" filterUnits="userSpaceOnUse">
      <feOffset dy="3" input="SourceAlpha"/>
      <feGaussianBlur stdDeviation="3" result="blur-13"/>
      <feFlood flood-opacity="0.161"/>
      <feComposite operator="in" in2="blur-13"/>
      <feComposite in="SourceGraphic"/>
    </filter>
    <clipPath id="clip-_525252-guide">
      <rect width="400" height="800"/>
    </clipPath>
  </defs>
  <g id="_525252-guide" data-name="525252-guide" clip-path="url(#clip-_525252-guide)">
    <rect width="400" height="800" fill="#525252"/>
    <g transform="matrix(1, 0, 0, 1, 0, 0)" filter="url(#_525252)">
      <text id="_525252-2" data-name="#525252" transform="translate(291 790)" fill="#fff" font-size="24" font-family="SegoeUI-Bold, Segoe UI" font-weight="700"><tspan x="0" y="0">#525252</tspan></text>
    </g>
    <g id="Group_64" data-name="Group 64" transform="translate(-13910 23)">
      <g transform="matrix(1, 0, 0, 1, 13910, -23)" filter="url(#Rectangle_128)">
        <g id="Rectangle_128-7" data-name="Rectangle 128" transform="translate(13 12)" fill="none" stroke="#fff" stroke-width="1">
          <rect width="375" height="100" rx="5" stroke="none"/>
          <rect x="0.5" y="0.5" width="374" height="99" rx="4.5" fill="none"/>
        </g>
      </g>
      <g transform="matrix(1, 0, 0, 1, 13910, -23)" filter="url(#Rectangle_129)">
        <path id="Rectangle_129-7" data-name="Rectangle 129" d="M5,0H115a0,0,0,0,1,0,0V100a0,0,0,0,1,0,0H5a5,5,0,0,1-5-5V5A5,5,0,0,1,5,0Z" transform="translate(13 12)" fill="#fff"/>
      </g>
      <text id="_7.8:1" data-name="7.8:1" transform="translate(13927 15)" fill="#525252" font-size="24" font-family="SegoeUI, Segoe UI"><tspan x="0" y="0">7.8:1</tspan></text>
      <text id="_FFFFFF" data-name="#FFFFFF" transform="translate(13927 83)" fill="#525252" font-size="24" font-family="SegoeUI, Segoe UI"><tspan x="0" y="0">#FFFFFF</tspan></text>
      <g id="Rectangle_101" data-name="Rectangle 101" transform="translate(14251 -7)" fill="#525252" stroke="#fff" stroke-width="2">
        <rect width="40" height="25" rx="5" stroke="none"/>
        <rect x="1" y="1" width="38" height="23" rx="4" fill="none"/>
      </g>
      <text id="AAA" transform="translate(14271 12)" fill="#fff" font-size="16" font-family="SegoeUI-Bold, Segoe UI" font-weight="700"><tspan x="-16.875" y="0">AAA</tspan></text>
      <g id="Rectangle_100" data-name="Rectangle 100" transform="translate(14043 -7)" fill="#525252" stroke="#fff" stroke-width="2">
        <rect width="40" height="25" rx="5" stroke="none"/>
        <rect x="1" y="1" width="38" height="23" rx="4" fill="none"/>
      </g>
      <text id="AA" transform="translate(14063 12)" fill="#fff" font-size="16" font-family="SegoeUI-Bold, Segoe UI" font-weight="700"><tspan x="-11.25" y="0">AA</tspan></text>
      <g id="Group_28" data-name="Group 28" transform="translate(166 324)">
        <text id="Normal_Text" data-name="Normal Text" transform="translate(13922 -286)" fill="#fff" font-size="16" font-family="SegoeUI, Segoe UI"><tspan x="-42.52" y="0">Normal Text</tspan></text>
        <text id="Large_Text" data-name="Large Text" transform="translate(13915 -265)" fill="#fff" font-size="16" font-family="SegoeUI, Segoe UI"><tspan x="-35.68" y="0">Large Text</tspan></text>
        <text id="UI_Elements" data-name="UI Elements" transform="translate(13921 -244)" fill="#fff" font-size="16" font-family="SegoeUI, Segoe UI"><tspan x="-41.691" y="0">UI Elements</tspan></text>
        <text id="Normal_Text-2" data-name="Normal Text" transform="translate(14082 -286)" fill="#fff" font-size="16" font-family="SegoeUI, Segoe UI"><tspan x="-42.52" y="0">Normal Text</tspan></text>
        <text id="Large_Text-2" data-name="Large Text" transform="translate(14089 -265)" fill="#fff" font-size="16" font-family="SegoeUI, Segoe UI"><tspan x="-35.68" y="0">Large Text</tspan></text>
        <text id="UI_Elements-2" data-name="UI Elements" transform="translate(14083 -244)" fill="#fff" font-size="16" font-family="SegoeUI, Segoe UI"><tspan x="-41.691" y="0">UI Elements</tspan></text>
      </g>
    </g>
    <g id="Group_65" data-name="Group 65" transform="translate(-13753 154)">
      <g transform="matrix(1, 0, 0, 1, 13753, -154)" filter="url(#Rectangle_128-2)">
        <g id="Rectangle_128-8" data-name="Rectangle 128" transform="translate(13 119)" fill="none" stroke="#f3f4f7" stroke-width="1">
          <rect width="375" height="100" rx="5" stroke="none"/>
          <rect x="0.5" y="0.5" width="374" height="99" rx="4.5" fill="none"/>
        </g>
      </g>
      <g transform="matrix(1, 0, 0, 1, 13753, -154)" filter="url(#Rectangle_129-2)">
        <path id="Rectangle_129-8" data-name="Rectangle 129" d="M5,0H115a0,0,0,0,1,0,0V100a0,0,0,0,1,0,0H5a5,5,0,0,1-5-5V5A5,5,0,0,1,5,0Z" transform="translate(13 119)" fill="#f3f4f7"/>
      </g>
      <text id="_7.1:1" data-name="7.1:1" transform="translate(13770 -9)" fill="#525252" font-size="24" font-family="SegoeUI, Segoe UI"><tspan x="0" y="0">7.1:1</tspan></text>
      <text id="_F3F4F7" data-name="#F3F4F7" transform="translate(13770 59)" fill="#525252" font-size="24" font-family="SegoeUI, Segoe UI"><tspan x="0" y="0">#F3F4F7</tspan></text>
      <g id="Rectangle_101-2" data-name="Rectangle 101" transform="translate(14094 -31)" fill="#525252" stroke="#f3f4f7" stroke-width="2">
        <rect width="40" height="25" rx="5" stroke="none"/>
        <rect x="1" y="1" width="38" height="23" rx="4" fill="none"/>
      </g>
      <text id="AAA-2" data-name="AAA" transform="translate(14114 -12)" fill="#f3f4f7" font-size="16" font-family="SegoeUI-Bold, Segoe UI" font-weight="700"><tspan x="-16.875" y="0">AAA</tspan></text>
      <g id="Rectangle_100-2" data-name="Rectangle 100" transform="translate(13886 -31)" fill="#525252" stroke="#f3f4f7" stroke-width="2">
        <rect width="40" height="25" rx="5" stroke="none"/>
        <rect x="1" y="1" width="38" height="23" rx="4" fill="none"/>
      </g>
      <text id="AA-2" data-name="AA" transform="translate(13906 -12)" fill="#f3f4f7" font-size="16" font-family="SegoeUI-Bold, Segoe UI" font-weight="700"><tspan x="-11.25" y="0">AA</tspan></text>
      <g id="Group_28-2" data-name="Group 28" transform="translate(9 300)">
        <text id="Normal_Text-3" data-name="Normal Text" transform="translate(13922 -286)" fill="#f3f4f7" font-size="16" font-family="SegoeUI, Segoe UI"><tspan x="-42.52" y="0">Normal Text</tspan></text>
        <text id="Large_Text-3" data-name="Large Text" transform="translate(13915 -265)" fill="#f3f4f7" font-size="16" font-family="SegoeUI, Segoe UI"><tspan x="-35.68" y="0">Large Text</tspan></text>
        <text id="UI_Elements-3" data-name="UI Elements" transform="translate(13921 -244)" fill="#f3f4f7" font-size="16" font-family="SegoeUI, Segoe UI"><tspan x="-41.691" y="0">UI Elements</tspan></text>
        <text id="Normal_Text-4" data-name="Normal Text" transform="translate(14082 -286)" fill="#f3f4f7" font-size="16" font-family="SegoeUI, Segoe UI"><tspan x="-42.52" y="0">Normal Text</tspan></text>
        <text id="Large_Text-4" data-name="Large Text" transform="translate(14089 -265)" fill="#f3f4f7" font-size="16" font-family="SegoeUI, Segoe UI"><tspan x="-35.68" y="0">Large Text</tspan></text>
        <text id="UI_Elements-4" data-name="UI Elements" transform="translate(14083 -244)" fill="#f3f4f7" font-size="16" font-family="SegoeUI, Segoe UI"><tspan x="-41.691" y="0">UI Elements</tspan></text>
      </g>
    </g>
    <g id="Group_66" data-name="Group 66" transform="translate(-13939 288)">
      <g transform="matrix(1, 0, 0, 1, 13939, -288)" filter="url(#Rectangle_128-3)">
        <g id="Rectangle_128-9" data-name="Rectangle 128" transform="translate(13 226)" fill="none" stroke="#c9e5f8" stroke-width="1">
          <rect width="375" height="100" rx="5" stroke="none"/>
          <rect x="0.5" y="0.5" width="374" height="99" rx="4.5" fill="none"/>
        </g>
      </g>
      <g transform="matrix(1, 0, 0, 1, 13939, -288)" filter="url(#Rectangle_129-3)">
        <path id="Rectangle_129-9" data-name="Rectangle 129" d="M5,0H115a0,0,0,0,1,0,0V100a0,0,0,0,1,0,0H5a5,5,0,0,1-5-5V5A5,5,0,0,1,5,0Z" transform="translate(13 226)" fill="#c9e5f8"/>
      </g>
      <text id="_5.97:1" data-name="5.97:1" transform="translate(13956 -36)" fill="#525252" font-size="24" font-family="SegoeUI, Segoe UI"><tspan x="0" y="0">5.97:1</tspan></text>
      <text id="_C9E5F8" data-name="#C9E5F8" transform="translate(13956 32)" fill="#525252" font-size="24" font-family="SegoeUI, Segoe UI"><tspan x="0" y="0">#C9E5F8</tspan></text>
      <g id="Rectangle_101-3" data-name="Rectangle 101" transform="translate(14280 -58)" fill="#525252" stroke="#c9e5f8" stroke-width="2">
        <rect width="40" height="25" rx="5" stroke="none"/>
        <rect x="1" y="1" width="38" height="23" rx="4" fill="none"/>
      </g>
      <text id="AAA-3" data-name="AAA" transform="translate(14300 -39)" fill="#c9e5f8" font-size="16" font-family="SegoeUI-Bold, Segoe UI" font-weight="700"><tspan x="-16.875" y="0">AAA</tspan></text>
      <g id="Rectangle_100-3" data-name="Rectangle 100" transform="translate(14072 -58)" fill="#525252" stroke="#c9e5f8" stroke-width="2">
        <rect width="40" height="25" rx="5" stroke="none"/>
        <rect x="1" y="1" width="38" height="23" rx="4" fill="none"/>
      </g>
      <text id="AA-3" data-name="AA" transform="translate(14092 -39)" fill="#c9e5f8" font-size="16" font-family="SegoeUI-Bold, Segoe UI" font-weight="700"><tspan x="-11.25" y="0">AA</tspan></text>
      <g id="Group_28-3" data-name="Group 28" transform="translate(195 273)">
        <text id="Normal_Text-5" data-name="Normal Text" transform="translate(13922 -286)" fill="#c9e5f8" font-size="16" font-family="SegoeUI, Segoe UI"><tspan x="-42.52" y="0">Normal Text</tspan></text>
        <text id="Large_Text-5" data-name="Large Text" transform="translate(13915 -265)" fill="#c9e5f8" font-size="16" font-family="SegoeUI, Segoe UI"><tspan x="-35.68" y="0">Large Text</tspan></text>
        <text id="UI_Elements-5" data-name="UI Elements" transform="translate(13921 -244)" fill="#c9e5f8" font-size="16" font-family="SegoeUI, Segoe UI"><tspan x="-41.691" y="0">UI Elements</tspan></text>
        <text id="Normal_Text-6" data-name="Normal Text" transform="translate(14082 -286)" fill="#c9e5f8" font-size="16" font-family="SegoeUI, Segoe UI"><tspan x="-42.52" y="0">Normal Text</tspan></text>
        <text id="Large_Text-6" data-name="Large Text" transform="translate(14089 -265)" fill="#c9e5f8" font-size="16" font-family="SegoeUI, Segoe UI"><tspan x="-35.68" y="0">Large Text</tspan></text>
        <text id="UI_Elements-6" data-name="UI Elements" transform="translate(14083 -244)" fill="#c9e5f8" font-size="16" font-family="SegoeUI, Segoe UI"><tspan x="-41.691" y="0">UI Elements</tspan></text>
      </g>
    </g>
    <g id="Group_70" data-name="Group 70" transform="translate(-13833 412)">
      <g transform="matrix(1, 0, 0, 1, 13833, -412)" filter="url(#Rectangle_128-4)">
        <g id="Rectangle_128-10" data-name="Rectangle 128" transform="translate(13 333)" fill="none" stroke="#fad980" stroke-width="1">
          <rect width="375" height="100" rx="5" stroke="none"/>
          <rect x="0.5" y="0.5" width="374" height="99" rx="4.5" fill="none"/>
        </g>
      </g>
      <g transform="matrix(1, 0, 0, 1, 13833, -412)" filter="url(#Rectangle_129-4)">
        <path id="Rectangle_129-10" data-name="Rectangle 129" d="M5,0H115a0,0,0,0,1,0,0V100a0,0,0,0,1,0,0H5a5,5,0,0,1-5-5V5A5,5,0,0,1,5,0Z" transform="translate(13 333)" fill="#fad980"/>
      </g>
      <text id="_5.69:1" data-name="5.69:1" transform="translate(13850 -53)" fill="#525252" font-size="24" font-family="SegoeUI, Segoe UI"><tspan x="0" y="0">5.69:1</tspan></text>
      <text id="_FAD980" data-name="#FAD980" transform="translate(13850 15)" fill="#525252" font-size="24" font-family="SegoeUI, Segoe UI"><tspan x="0" y="0">#FAD980</tspan></text>
      <g id="Rectangle_101-4" data-name="Rectangle 101" transform="translate(14174 -75)" fill="#525252" stroke="#fad980" stroke-width="2">
        <rect width="40" height="25" rx="5" stroke="none"/>
        <rect x="1" y="1" width="38" height="23" rx="4" fill="none"/>
      </g>
      <text id="AAA-4" data-name="AAA" transform="translate(14194 -56)" fill="#fad980" font-size="16" font-family="SegoeUI-Bold, Segoe UI" font-weight="700"><tspan x="-16.875" y="0">AAA</tspan></text>
      <g id="Rectangle_100-4" data-name="Rectangle 100" transform="translate(13966 -75)" fill="#525252" stroke="#fad980" stroke-width="2">
        <rect width="40" height="25" rx="5" stroke="none"/>
        <rect x="1" y="1" width="38" height="23" rx="4" fill="none"/>
      </g>
      <text id="AA-4" data-name="AA" transform="translate(13986 -56)" fill="#fad980" font-size="16" font-family="SegoeUI-Bold, Segoe UI" font-weight="700"><tspan x="-11.25" y="0">AA</tspan></text>
      <g id="Group_69" data-name="Group 69" transform="translate(89 152)">
        <text id="Normal_Text-7" data-name="Normal Text" transform="translate(13922 -183)" fill="#fad980" font-size="16" font-family="SegoeUI, Segoe UI"><tspan x="-42.52" y="0">Normal Text</tspan></text>
        <text id="Large_Text-7" data-name="Large Text" transform="translate(13915 -162)" fill="#fad980" font-size="16" font-family="SegoeUI, Segoe UI"><tspan x="-35.68" y="0">Large Text</tspan></text>
        <text id="UI_Elements-7" data-name="UI Elements" transform="translate(13921 -141)" fill="#fad980" font-size="16" font-family="SegoeUI, Segoe UI"><tspan x="-41.691" y="0">UI Elements</tspan></text>
        <text id="Large_Text-8" data-name="Large Text" transform="translate(14080 -163)" fill="#fad980" font-size="20" font-family="SegoeUI, Segoe UI"><tspan x="-44.6" y="0">Large Text</tspan></text>
        <text id="UI_Elements-8" data-name="UI Elements" transform="translate(14073 -139)" fill="#fad980" font-size="20" font-family="SegoeUI, Segoe UI"><tspan x="-52.114" y="0">UI Elements</tspan></text>
      </g>
    </g>
    <g id="Group_71" data-name="Group 71" transform="translate(-13649 592)">
      <g id="Group_27" data-name="Group 27" transform="translate(-106 223)">
        <text id="Large_Text-9" data-name="Large Text" transform="translate(13936 -203)" fill="#77beed" font-size="20" font-family="SegoeUI, Segoe UI"><tspan x="-44.6" y="0">Large Text</tspan></text>
        <text id="UI_Elements-9" data-name="UI Elements" transform="translate(13942 -175)" fill="#77beed" font-size="20" font-family="SegoeUI, Segoe UI"><tspan x="-52.114" y="0">UI Elements</tspan></text>
      </g>
      <g transform="matrix(1, 0, 0, 1, 13649, -592)" filter="url(#Rectangle_128-5)">
        <g id="Rectangle_128-11" data-name="Rectangle 128" transform="translate(13 547)" fill="none" stroke="#77beed" stroke-width="1">
          <rect width="375" height="100" rx="5" stroke="none"/>
          <rect x="0.5" y="0.5" width="374" height="99" rx="4.5" fill="none"/>
        </g>
      </g>
      <g transform="matrix(1, 0, 0, 1, 13649, -592)" filter="url(#Rectangle_129-5)">
        <path id="Rectangle_129-11" data-name="Rectangle 129" d="M5,0H115a0,0,0,0,1,0,0V100a0,0,0,0,1,0,0H5a5,5,0,0,1-5-5V5A5,5,0,0,1,5,0Z" transform="translate(13 547)" fill="#77beed"/>
      </g>
      <text id="_3.85:1" data-name="3.85:1" transform="translate(13666 -19)" fill="#525252" font-size="24" font-family="SegoeUI, Segoe UI"><tspan x="0" y="0">3.85:1</tspan></text>
      <text id="_77BEED" data-name="#77BEED" transform="translate(13666 49)" fill="#525252" font-size="24" font-family="SegoeUI, Segoe UI"><tspan x="0" y="0">#77BEED</tspan></text>
      <g id="Rectangle_101-5" data-name="Rectangle 101" transform="translate(13990 -41)" fill="#525252" stroke="#77beed" stroke-width="2">
        <rect width="40" height="25" rx="5" stroke="none"/>
        <rect x="1" y="1" width="38" height="23" rx="4" fill="none"/>
      </g>
      <text id="AAA-5" data-name="AAA" transform="translate(14010 -22)" fill="#77beed" font-size="16" font-family="SegoeUI-Bold, Segoe UI" font-weight="700"><tspan x="-16.875" y="0">AAA</tspan></text>
      <g id="Rectangle_100-5" data-name="Rectangle 100" transform="translate(13782 -41)" fill="#525252" stroke="#77beed" stroke-width="2">
        <rect width="40" height="25" rx="5" stroke="none"/>
        <rect x="1" y="1" width="38" height="23" rx="4" fill="none"/>
      </g>
      <text id="AA-5" data-name="AA" transform="translate(13802 -22)" fill="#77beed" font-size="16" font-family="SegoeUI-Bold, Segoe UI" font-weight="700"><tspan x="-11.25" y="0">AA</tspan></text>
    </g>
    <g id="Group_79" data-name="Group 79" transform="translate(-13674 479)">
      <g transform="matrix(1, 0, 0, 1, 13674, -479)" filter="url(#Rectangle_128-6)">
        <g id="Rectangle_128-12" data-name="Rectangle 128" transform="translate(13 440)" fill="none" stroke="#ccd3e0" stroke-width="1">
          <rect width="375" height="100" rx="5" stroke="none"/>
          <rect x="0.5" y="0.5" width="374" height="99" rx="4.5" fill="none"/>
        </g>
      </g>
      <g transform="matrix(1, 0, 0, 1, 13674, -479)" filter="url(#Rectangle_129-6)">
        <path id="Rectangle_129-12" data-name="Rectangle 129" d="M5,0H115a0,0,0,0,1,0,0V100a0,0,0,0,1,0,0H5a5,5,0,0,1-5-5V5A5,5,0,0,1,5,0Z" transform="translate(13 440)" fill="#ccd3e0"/>
      </g>
      <text id="_5.19:1" data-name="5.19:1" transform="translate(13691 -13)" fill="#525252" font-size="24" font-family="SegoeUI, Segoe UI"><tspan x="0" y="0">5.19:1</tspan></text>
      <text id="_CCD3E0" data-name="#CCD3E0" transform="translate(13691 55)" fill="#525252" font-size="24" font-family="SegoeUI, Segoe UI"><tspan x="0" y="0">#CCD3E0</tspan></text>
      <g id="Rectangle_101-6" data-name="Rectangle 101" transform="translate(14015 -35)" fill="#525252" stroke="#ccd3e0" stroke-width="2">
        <rect width="40" height="25" rx="5" stroke="none"/>
        <rect x="1" y="1" width="38" height="23" rx="4" fill="none"/>
      </g>
      <text id="AAA-6" data-name="AAA" transform="translate(14035 -16)" fill="#ccd3e0" font-size="16" font-family="SegoeUI-Bold, Segoe UI" font-weight="700"><tspan x="-16.875" y="0">AAA</tspan></text>
      <g id="Rectangle_100-6" data-name="Rectangle 100" transform="translate(13807 -35)" fill="#525252" stroke="#ccd3e0" stroke-width="2">
        <rect width="40" height="25" rx="5" stroke="none"/>
        <rect x="1" y="1" width="38" height="23" rx="4" fill="none"/>
      </g>
      <text id="AA-6" data-name="AA" transform="translate(13827 -16)" fill="#ccd3e0" font-size="16" font-family="SegoeUI-Bold, Segoe UI" font-weight="700"><tspan x="-11.25" y="0">AA</tspan></text>
      <g id="Group_78" data-name="Group 78" transform="translate(-72 192)">
        <text id="Normal_Text-8" data-name="Normal Text" transform="translate(13922 -183)" fill="#ccd3e0" font-size="16" font-family="SegoeUI, Segoe UI"><tspan x="-42.52" y="0">Normal Text</tspan></text>
        <text id="Large_Text-10" data-name="Large Text" transform="translate(13915 -162)" fill="#ccd3e0" font-size="16" font-family="SegoeUI, Segoe UI"><tspan x="-35.68" y="0">Large Text</tspan></text>
        <text id="UI_Elements-10" data-name="UI Elements" transform="translate(13921 -141)" fill="#ccd3e0" font-size="16" font-family="SegoeUI, Segoe UI"><tspan x="-41.691" y="0">UI Elements</tspan></text>
        <text id="Large_Text-11" data-name="Large Text" transform="translate(14080 -163)" fill="#ccd3e0" font-size="20" font-family="SegoeUI, Segoe UI"><tspan x="-44.6" y="0">Large Text</tspan></text>
        <text id="UI_Elements-11" data-name="UI Elements" transform="translate(14073 -139)" fill="#ccd3e0" font-size="20" font-family="SegoeUI, Segoe UI"><tspan x="-52.114" y="0">UI Elements</tspan></text>
      </g>
    </g>
  </g>
</svg>
