<?xml version="1.0" encoding="UTF-8"?>
<svg id="Layer_2" data-name="Layer 2" xmlns="http://www.w3.org/2000/svg" viewBox="0 0 500 800">
  <defs>
    <style>
      .cls-1, .cls-2, .cls-3 {
        fill: #fff;
      }

      .cls-4 {
        fill: #f8db8b;
      }

      .cls-5 {
        letter-spacing: 0em;
      }

      .cls-6 {
        fill: none;
        stroke: #fff;
        stroke-miterlimit: 10;
      }

      .cls-7 {
        letter-spacing: 0em;
      }

      .cls-8 {
        letter-spacing: 0em;
      }

      .cls-9 {
        fill: #ccd3e0;
      }

      .cls-10 {
        letter-spacing: .01em;
      }

      .cls-11 {
        letter-spacing: -.01em;
      }

      .cls-12 {
        letter-spacing: 0em;
      }

      .cls-13 {
        fill: #f3f4f7;
      }

      .cls-2 {
        font-size: 32px;
      }

      .cls-2, .cls-3 {
        font-family: MyriadPro-Regular, 'Myriad Pro';
      }

      .cls-3 {
        font-size: 20px;
      }

      .cls-14 {
        letter-spacing: -.02em;
      }

      .cls-15 {
        letter-spacing: 0em;
      }

      .cls-16 {
        letter-spacing: 0em;
      }

      .cls-17 {
        fill: #c9e5f8;
      }

      .cls-18 {
        fill: #537b3d;
      }
    </style>
  </defs>
  <g id="Layer_1-2" data-name="Layer 1">
    <rect class="cls-18" width="500" height="800"/>
    <text class="cls-2" transform="translate(189.89 59.42)"><tspan x="0" y="0">#537B3D</tspan></text>
    <rect class="cls-6" x="37.5" y="727.66" width="425" height="45" rx="10" ry="10"/>
    <text class="cls-3" transform="translate(72.67 756.03)"><tspan class="cls-15" x="0" y="0">C</tspan><tspan x="11.46" y="0">an use </tspan><tspan class="cls-11" x="69.64" y="0">f</tspan><tspan class="cls-5" x="75.22" y="0">or la</tspan><tspan class="cls-7" x="111.34" y="0">r</tspan><tspan x="117.72" y="0">ge </tspan><tspan class="cls-8" x="143.16" y="0">t</tspan><tspan class="cls-12" x="149.66" y="0">e</tspan><tspan class="cls-10" x="159.62" y="0">x</tspan><tspan x="169.14" y="0">t and UI eleme</tspan><tspan class="cls-16" x="289.68" y="0">n</tspan><tspan x="300.7" y="0">ts only</tspan></text>
    <circle class="cls-1" cx="251.02" cy="122.61" r="20"/>
    <text class="cls-2" transform="translate(48.98 132)"><tspan x="0" y="0">#FFFFFF</tspan></text>
    <text class="cls-2" transform="translate(372.12 132.35)"><tspan x="0" y="0">4.92:1</tspan></text>
    <circle class="cls-13" cx="251.02" cy="173.52" r="20"/>
    <text class="cls-2" transform="translate(48.98 182.91)"><tspan x="0" y="0">#F3F4F7</tspan></text>
    <text class="cls-2" transform="translate(372.11 182.91)"><tspan x="0" y="0">4.47:1</tspan></text>
    <circle cx="251.02" cy="224.43" r="20"/>
    <text class="cls-2" transform="translate(48.98 233.82)"><tspan x="0" y="0">#000000</tspan></text>
    <text class="cls-2" transform="translate(372.11 233.82)"><tspan x="0" y="0">4.27:1</tspan></text>
    <circle class="cls-17" cx="251.02" cy="275.33" r="20"/>
    <text class="cls-2" transform="translate(48.98 284.73)"><tspan x="0" y="0">#C9E5F8</tspan></text>
    <text class="cls-2" transform="translate(372.12 284.73)"><tspan x="0" y="0">3.76:1</tspan></text>
    <circle class="cls-4" cx="251.02" cy="326.24" r="20"/>
    <text class="cls-2" transform="translate(48.98 335.64)"><tspan x="0" y="0">#F8DB8B</tspan></text>
    <text class="cls-2" transform="translate(372.12 335.64)"><tspan x="0" y="0">3.63:1</tspan></text>
    <circle class="cls-9" cx="251.02" cy="377.15" r="20"/>
    <text class="cls-2" transform="translate(48.98 386.55)"><tspan x="0" y="0">#</tspan><tspan class="cls-14" x="15.9" y="0">C</tspan><tspan x="33.79" y="0">CD3E0</tspan></text>
    <text class="cls-2" transform="translate(372.11 386.54)"><tspan x="0" y="0">3.27:1</tspan></text>
    <rect class="cls-6" x="37.5" y="354.65" width="425" height="45" rx="10" ry="10"/>
    <rect class="cls-6" x="37.5" y="201.93" width="425" height="45" rx="10" ry="10"/>
    <rect class="cls-6" x="37.5" y="303.74" width="425" height="45" rx="10" ry="10"/>
    <rect class="cls-6" x="37.5" y="252.83" width="425" height="45" rx="10" ry="10"/>
  </g>
</svg>