<?xml version="1.0" encoding="UTF-8"?>
<svg id="Layer_1" data-name="Layer 1" xmlns="http://www.w3.org/2000/svg" viewBox="0 0 500 800">
  <defs>
    <style>
      .cls-1 {
        fill: #fff;
      }

      .cls-2 {
        fill: #23394e;
      }

      .cls-3 {
        fill: #2f5496;
      }

      .cls-4 {
        fill: #520bbd;
      }

      .cls-5 {
        font-family: MyriadPro-Regular, 'Myriad Pro';
        font-size: 32px;
      }

      .cls-6 {
        fill: #ad347c;
      }

      .cls-7 {
        fill: #032c73;
      }

      .cls-8 {
        fill: #537b3d;
      }
    </style>
  </defs>
  <rect class="cls-1" width="500" height="800"/>
  <text class="cls-5" transform="translate(195.3 59.39)"><tspan x="0" y="0">#FFFFFF</tspan></text>
  <circle cx="250" cy="120" r="20"/>
  <text class="cls-5" transform="translate(47.95 129.39)"><tspan x="0" y="0">#000000</tspan></text>
  <text class="cls-5" transform="translate(394.13 129.74)"><tspan x="0" y="0">21:1</tspan></text>
  <circle class="cls-7" cx="250" cy="170.91" r="20"/>
  <text class="cls-5" transform="translate(47.95 180.3)"><tspan x="0" y="0">#032C73</tspan></text>
  <text class="cls-5" transform="translate(354.68 180.3)"><tspan x="0" y="0">13.03:1</tspan></text>
  <circle class="cls-2" cx="250" cy="221.82" r="20"/>
  <text class="cls-5" transform="translate(47.95 231.21)"><tspan x="0" y="0">#23394E</tspan></text>
  <text class="cls-5" transform="translate(354.67 231.21)"><tspan x="0" y="0">11.89:1</tspan></text>
  <circle class="cls-4" cx="250" cy="272.73" r="20"/>
  <text class="cls-5" transform="translate(47.95 282.12)"><tspan x="0" y="0">#520BBD</tspan></text>
  <text class="cls-5" transform="translate(371.09 282.12)"><tspan x="0" y="0">9.81:1</tspan></text>
  <circle class="cls-3" cx="250" cy="323.64" r="20"/>
  <text class="cls-5" transform="translate(47.95 333.03)"><tspan x="0" y="0">#2F5496</tspan></text>
  <text class="cls-5" transform="translate(371.09 333.03)"><tspan x="0" y="0">7.42:1</tspan></text>
  <circle class="cls-6" cx="250" cy="374.55" r="20"/>
  <text class="cls-5" transform="translate(47.95 383.94)"><tspan x="0" y="0">#AD347C</tspan></text>
  <text class="cls-5" transform="translate(387.51 383.94)"><tspan x="0" y="0">5.9:1</tspan></text>
  <circle class="cls-8" cx="250" cy="425.45" r="20"/>
  <text class="cls-5" transform="translate(47.95 434.85)"><tspan x="0" y="0">#537B3D</tspan></text>
  <text class="cls-5" transform="translate(371.09 434.85)"><tspan x="0" y="0">4.92:1</tspan></text>
</svg>