<?xml version="1.0" encoding="utf-8"?>
<!-- Generator: Adobe Illustrator 27.0.1, SVG Export Plug-In . SVG Version: 6.00 Build 0)  -->
<svg version="1.1" id="Layer_1" xmlns="http://www.w3.org/2000/svg" xmlns:xlink="http://www.w3.org/1999/xlink" x="0px" y="0px"
	 viewBox="0 0 500 500" style="enable-background:new 0 0 500 500;" xml:space="preserve">
<style type="text/css">
	.st0{display:none;}
	.st1{fill:none;}
	.st2{display:inline;}
	.st3{fill:#525252;}
	.st4{fill:#FFFFFF;stroke:#231F20;stroke-width:6;stroke-miterlimit:10;}
	.st5{fill:#231F20;}
	.st6{fill:#2F5596;}
	.st7{fill:none;stroke:#231F20;stroke-width:2;stroke-miterlimit:10;}
	.st8{fill:#FFFFFF;}
	.st9{fill:#FFFFFF;stroke:#231F20;stroke-width:5;stroke-miterlimit:10;}
	.st10{fill:#032C73;}
	.st11{font-family:'AtkinsonHyperlegible-Bold';}
	.st12{font-size:107.8477px;}
</style>
<g class="st0">
	
		<ellipse transform="matrix(0.7071 -0.7071 0.7071 0.7071 -103.2606 250.7072)" class="st1" cx="251" cy="250" rx="172.2" ry="172.2"/>
	<g class="st2">
		
			<ellipse transform="matrix(0.7071 -0.7071 0.7071 0.7071 -103.2606 250.7072)" class="st1" cx="251" cy="250" rx="172.2" ry="172.2"/>
		<path class="st3" d="M251,75.8c-96.05,0-174.2,78.15-174.2,174.2S154.95,424.2,251,424.2S425.2,346.05,425.2,250
			S347.05,75.8,251,75.8z M251,422.2c-94.95,0-172.2-77.25-172.2-172.2c0-94.95,77.25-172.2,172.2-172.2
			c94.95,0,172.2,77.25,172.2,172.2C423.2,344.95,345.95,422.2,251,422.2z"/>
	</g>
</g>
<g id="Layer_2">
</g>
<circle class="st4" cx="250" cy="250" r="234.24"/>
<g>
	<path class="st5" d="M21.06,283.37c-1.59-10.98-2.4-22.2-2.4-33.37C18.67,122.44,122.44,18.67,250,18.67S481.33,122.44,481.33,250
		c0,11.33-0.83,22.47-2.42,33.37h7.69c1.53-10.91,2.34-22.05,2.34-33.37c0-131.76-107.19-238.95-238.94-238.95
		C118.24,11.05,11.05,118.24,11.05,250c0,11.17,0.79,22.38,2.32,33.37H21.06z"/>
	<path class="st5" d="M447.35,370.58C406.64,436.96,333.41,481.33,250,481.33c-55.8,0-109.68-20.14-151.73-56.71
		c-18.05-15.7-33.42-33.97-45.7-54.05H43.7c13.05,22.3,29.74,42.55,49.57,59.79c43.44,37.77,99.1,58.58,156.73,58.58
		c87.8,0,164.69-47.61,206.22-118.37H447.35z"/>
</g>
<path class="st6" d="M336.28,399.28c-4.51-2.42-8.73-5.66-13.51-7.25c-6.2-2.06-9.64-5.46-10.55-10.5v-6.07
	c0.01-0.08,0.02-0.16,0.03-0.24c0.01-0.04-0.02-0.09-0.03-0.13V265.27c0-3.06,0-5.63,0-8.2c0.03-44.12,0.32-88.24-0.11-132.36
	c-0.09-9.46,1.93-14.63,11.74-17.8c5.65-1.82,10.03-8.41,14.21-13.49c1.23-1.49,0.62-5.68-0.66-7.64c-0.8-1.23-4.48-1.08-6.75-0.75
	c-2.96,0.43-5.81,2.38-8.71,2.39c-23.84,0.09-47.73,0.67-71.52-0.45c-24.78-1.16-49.5-4.72-74.16,0.64
	c-20.5,4.45-38.14,13.54-50.28,31.54c-12.03,17.84-14.01,37.66-10.9,58.13c2.17,14.3,7.84,27.5,17.74,38.36
	c23.28,25.57,53.52,32.92,86.55,32.55c4.35-0.05,8.69-0.86,13.26-1.34c0.56,6.63,1.04,12.27,1.56,18.36v108.77c0,4.1,0,7.84,0,11.69
	c-13.6,4.82-25.78,11.37-36.65,24.01c4.35,1.57,7.67,3.75,11.03,3.82c34.06,0.69,68.14,0.55,102.18,1.74
	c10.53,0.37,18.41-3.08,26.09-9.23C340.39,403.15,340.02,401.29,336.28,399.28z M233.88,217.26c-24.82,5.47-59.45-4-72.76-22.2
	c-9.38-12.82-11.29-26.62-7.53-42.06c6.34-25.98,25.67-35.99,48.89-41.12c9.96-2.2,20.32-2.61,31.41-3.95
	C233.88,145.85,233.88,181.57,233.88,217.26z M274.16,389.28c-3.33-0.09-8.09-0.67-9.59-2.84c-1.12-1.62-1.64-3.66-2-5.87V265.21
	c0.07,0,0.14,0,0.21,0c0-51.57,0-102.65,0-154.19c6.94,0,13.16,0,19.83,0c0,51.7,0,102.87,0,154.24v121.47
	C280.95,388.84,278.38,389.4,274.16,389.28z"/>
<circle class="st7" cx="250" cy="250" r="221.02"/>
<g>
	<g>
		<rect y="265.68" class="st8" width="500" height="104.9"/>
		<line class="st9" x1="500" y1="367.4" x2="0" y2="367.4"/>
		<line class="st9" x1="0" y1="265.68" x2="500" y2="265.68"/>
	</g>
	<text transform="matrix(1 0 0 1 6.3743 350.9788)" class="st10 st11 st12">PILCROW</text>
</g>
</svg>
